<svg width="24" height="24" viewBox="0 0 24 24" fill="none" xmlns="http://www.w3.org/2000/svg">
<path d="M12 22.6074C11.7022 22.6071 11.4093 22.5307 11.1494 22.3852L7.7793 20.5132C6.10397 19.5816 4.708 18.2192 3.73587 16.5671C2.76374 14.915 2.25075 13.0331 2.25 11.1162V5.92038C2.24971 5.4878 2.40995 5.0705 2.69969 4.74928C2.98942 4.42807 3.38804 4.22579 3.81836 4.18161C5.15905 4.03958 6.47855 3.74134 7.75 3.29297C8.9158 2.88096 10.0341 2.34536 11.0859 1.69531C11.3611 1.52703 11.6775 1.43802 12.0001 1.43811C12.3226 1.4382 12.6389 1.52737 12.9141 1.6958C13.966 2.3455 15.0843 2.88093 16.25 3.29297C17.5215 3.74135 18.8409 4.0396 20.1816 4.18164C20.612 4.22582 21.0106 4.42809 21.3003 4.7493C21.59 5.07051 21.7503 5.4878 21.75 5.92038V11.1162C21.7492 13.0331 21.2363 14.915 20.2641 16.5671C19.292 18.2193 17.896 19.5816 16.2207 20.5132L12.8496 22.3857C12.59 22.5309 12.2975 22.6072 12 22.6074ZM12 2.93649C11.9559 2.93629 11.9127 2.94829 11.875 2.97116C10.7319 3.67704 9.51668 4.25927 8.25 4.70697C6.8681 5.19462 5.43386 5.51877 3.97656 5.67279C3.91464 5.67816 3.857 5.70659 3.81504 5.75244C3.77308 5.79829 3.74987 5.85823 3.75 5.92038V11.1162C3.75059 12.7656 4.19198 14.3849 5.02848 15.8064C5.86499 17.228 7.06621 18.4002 8.50781 19.2016L11.8789 21.0742C11.9157 21.0949 11.9572 21.1058 11.9995 21.1059C12.0417 21.106 12.0832 21.0953 12.1201 21.0747L15.4922 19.2017C16.9338 18.4002 18.135 17.228 18.9715 15.8065C19.808 14.3849 20.2494 12.7656 20.25 11.1162V5.92038C20.2501 5.85823 20.2269 5.79831 20.185 5.75246C20.143 5.70662 20.0854 5.67819 20.0234 5.67282C18.5661 5.51879 17.1319 5.19463 15.75 4.70697C14.4833 4.25926 13.2681 3.67751 12.125 2.97162C12.0875 2.94839 12.0441 2.93622 12 2.93649Z" fill="#8C8C8C"/>
<path d="M11.5001 14.25C11.3164 14.2503 11.1391 14.1828 11.0021 14.0605L8.7521 12.0605C8.60411 11.9283 8.5146 11.7427 8.50319 11.5445C8.49179 11.3464 8.55942 11.1518 8.69125 11.0034C8.82309 10.855 9.00838 10.765 9.2065 10.753C9.40463 10.741 9.59943 10.808 9.7482 10.9394L11.4523 12.4541L14.7033 8.98681C14.7704 8.91368 14.8513 8.85459 14.9413 8.81295C15.0314 8.77132 15.1288 8.74796 15.2279 8.74424C15.3271 8.74052 15.426 8.75651 15.5189 8.79128C15.6118 8.82605 15.6969 8.87891 15.7693 8.9468C15.8416 9.01469 15.8998 9.09627 15.9404 9.18679C15.981 9.27732 16.0032 9.375 16.0058 9.47419C16.0084 9.57337 15.9913 9.67208 15.9554 9.76459C15.9196 9.85711 15.8658 9.9416 15.797 10.0132L12.047 14.0132C11.977 14.0881 11.8923 14.1477 11.7982 14.1885C11.7041 14.2292 11.6026 14.2502 11.5001 14.25Z" fill="#8C8C8C"/>
</svg>
