<svg width="24" height="24" viewBox="0 0 24 24" fill="none" xmlns="http://www.w3.org/2000/svg">
<g clip-path="url(#clip0_294_1286)">
<path d="M12 1.40625C14.4443 1.40723 16.8131 2.25322 18.7051 3.80085C20.597 5.34849 21.8957 7.50261 22.3812 9.89822C22.8667 12.2938 22.509 14.7836 21.3688 16.9457C20.2287 19.1078 18.3761 20.8092 16.125 21.7617C13.536 22.8557 10.6185 22.8765 8.01424 21.8194C5.40997 20.7623 3.3323 18.714 2.23828 16.125C1.14426 13.536 1.12352 10.6185 2.18061 8.01424C3.2377 5.40997 5.28603 3.3323 7.875 2.23828C9.17996 1.68605 10.583 1.40305 12 1.40625ZM12 0C5.37281 0 0 5.37281 0 12C0 18.6272 5.37281 24 12 24C18.6272 24 24 18.6272 24 12C24 5.37281 18.6272 0 12 0Z" fill="#8C8C8C"/>
<path d="M15.5012 18.4627C14.8042 18.4158 13.8217 18.1753 12.8626 17.8322C9.48106 16.6219 6.18153 13.3973 5.48028 8.88704C5.35559 8.08407 5.48684 7.35047 6.09528 6.75329C6.29919 6.5536 6.48059 6.33141 6.67981 6.12704C7.42981 5.355 8.52575 5.33532 9.30247 6.07688C9.54856 6.31125 9.79887 6.54235 10.0389 6.78422C10.3675 7.10831 10.5578 7.54714 10.5698 8.00854C10.5817 8.46995 10.4145 8.91805 10.1031 9.25875C9.91559 9.46688 9.71872 9.66469 9.52091 9.86204C9.30481 10.0777 9.03622 10.2014 8.74794 10.2914C8.39216 10.403 8.32606 10.552 8.48778 10.8919C9.50966 13.0322 11.1092 14.5733 13.2864 15.5152C13.5775 15.6408 13.712 15.5841 13.8292 15.2953C14.0861 14.662 14.5572 14.2003 15.0986 13.8272C15.7112 13.4053 16.5887 13.4991 17.169 13.9978C17.4872 14.2712 17.7912 14.5606 18.0798 14.865C18.3904 15.1973 18.563 15.6353 18.5625 16.0901C18.5621 16.5449 18.3887 16.9825 18.0775 17.3142C17.987 17.4127 17.8937 17.5088 17.807 17.61C17.2848 18.217 16.6225 18.5011 15.5012 18.4627Z" fill="#8C8C8C"/>
</g>
<defs>
<clipPath id="clip0_294_1286">
<rect width="24" height="24" fill="white"/>
</clipPath>
</defs>
</svg>
