<svg width="24" height="24" viewBox="0 0 24 24" fill="none" xmlns="http://www.w3.org/2000/svg">
<g clip-path="url(#clip0_1079_1160)">
<path d="M22.3148 10.4636C22.223 7.84575 21.1628 5.39775 19.3013 3.53625C17.3502 1.58475 14.7571 0.510376 12.0001 0.510376C6.43171 0.510376 1.88184 4.9425 1.68571 10.4636C0.835961 10.8413 0.241211 11.6917 0.241211 12.6802V15.4035C0.241211 16.7407 1.32909 17.829 2.66671 17.829C3.53221 17.829 4.23609 17.1251 4.23609 16.2596V11.8238C4.23609 11.0111 3.61284 10.3485 2.82046 10.2697C3.11296 5.45963 7.11721 1.63538 12.0001 1.63538C14.4571 1.63538 16.7675 2.59313 18.5063 4.332C20.1031 5.92875 21.0376 8.01 21.1782 10.2701C20.3866 10.3496 19.7645 11.0119 19.7645 11.8238V16.2593C19.7645 17.0786 20.3975 17.7454 21.1992 17.8148V18.9356C21.1992 20.1979 20.1721 21.2246 18.9098 21.2246H17.2145C17.1312 20.9869 17.0007 20.7671 16.8177 20.5849C16.4971 20.2628 16.0696 20.0854 15.6143 20.0854H13.8668C13.616 20.0854 13.3752 20.1386 13.1547 20.2414C12.5532 20.5177 12.1647 21.1245 12.1647 21.7871C12.1647 22.2424 12.3421 22.6699 12.6635 22.9897C12.9848 23.3119 13.4123 23.4893 13.8668 23.4893H15.6143C16.3388 23.4893 16.9775 23.0209 17.2156 22.3496H18.9098C20.7927 22.3496 22.3242 20.8181 22.3242 18.9356V17.6145C23.1687 17.2346 23.759 16.3871 23.759 15.4028V12.6795C23.759 11.6918 23.1642 10.8413 22.3148 10.4636ZM3.11071 11.8238V16.2593C3.11071 16.5041 2.91159 16.7036 2.66634 16.7036C1.94934 16.7036 1.36584 16.1201 1.36584 15.4031V12.6799C1.36584 11.9625 1.94934 11.3794 2.66634 11.3794C2.91159 11.3794 3.11071 11.5789 3.11071 11.8238ZM16.1787 21.9079C16.1228 22.1726 15.8851 22.365 15.614 22.365H13.8665C13.7127 22.365 13.5683 22.305 13.4581 22.1947C13.3493 22.0864 13.2893 21.9416 13.2893 21.7879C13.2893 21.5632 13.421 21.3581 13.6272 21.2632C13.7007 21.2287 13.7813 21.2111 13.8665 21.2111H15.614C15.7677 21.2111 15.9121 21.2707 16.022 21.381C16.1307 21.4894 16.1907 21.6341 16.1907 21.7879C16.1911 21.8291 16.1866 21.8704 16.1787 21.9079ZM22.634 15.4031C22.634 16.1201 22.0505 16.7036 21.3335 16.7036C21.0886 16.7036 20.8891 16.5045 20.8891 16.2593V11.8238C20.8891 11.5789 21.0882 11.3794 21.3335 11.3794C22.0505 11.3794 22.634 11.9629 22.634 12.6799V15.4031Z" fill="#121CE3"/>
<path d="M15.6429 15.597C16.9572 15.597 18.0264 14.5275 18.0264 13.2135V8.35689C18.0264 7.72164 17.7781 7.12314 17.3274 6.67239C16.8766 6.22164 16.2785 5.97339 15.6429 5.97339H8.35811C7.04373 5.97339 5.97461 7.04251 5.97461 8.35689V13.2135C5.97461 14.5279 7.04373 15.597 8.35811 15.597H8.40273V16.8555C8.40273 17.3355 8.68886 17.7615 9.13136 17.9411C9.27423 17.9985 9.42273 18.027 9.56973 18.027C9.87611 18.027 10.1746 17.9055 10.3932 17.6794L12.4869 15.597H15.6429ZM11.8587 14.6355L9.59298 16.8889C9.58286 16.8994 9.57536 16.9073 9.55398 16.8979C9.52811 16.8874 9.52811 16.8705 9.52811 16.8555V15.0345C9.52811 14.724 9.27648 14.472 8.96561 14.472H8.35848C7.66436 14.472 7.09998 13.9073 7.09998 13.2135V8.35689C7.09998 7.66276 7.66436 7.09839 8.35848 7.09839H15.6432C15.9785 7.09839 16.2939 7.22964 16.5324 7.46776C16.7709 7.70626 16.9017 8.02201 16.9017 8.35689V13.2135C16.9017 13.9076 16.337 14.472 15.6432 14.472H12.2555C12.1066 14.472 11.9641 14.5309 11.8587 14.6355Z" fill="#121CE3"/>
<path d="M9.26737 10.0451C8.80987 10.0451 8.4375 10.4179 8.4375 10.875C8.4375 11.3321 8.81025 11.7049 9.26737 11.7049C9.72525 11.7049 10.098 11.3321 10.098 10.875C10.098 10.4179 9.72562 10.0451 9.26737 10.0451Z" fill="#8C8C8C"/>
<path d="M11.9998 10.0451C11.5423 10.0451 11.1699 10.4179 11.1699 10.875C11.1699 11.3321 11.5427 11.7049 11.9998 11.7049C12.458 11.7049 12.8304 11.3321 12.8304 10.875C12.8304 10.4179 12.458 10.0451 11.9998 10.0451Z" fill="#8C8C8C"/>
<path d="M14.7322 10.0451C14.2747 10.0451 13.9023 10.4179 13.9023 10.875C13.9023 11.3321 14.2751 11.7049 14.7322 11.7049C15.1901 11.7049 15.5628 11.3321 15.5628 10.875C15.5628 10.4179 15.1901 10.0451 14.7322 10.0451Z" fill="#8C8C8C"/>
</g>
<defs>
<clipPath id="clip0_1079_1160">
<rect width="24" height="24" fill="white"/>
</clipPath>
</defs>
</svg>
