<svg width="20" height="22" viewBox="0 0 20 22" fill="none" xmlns="http://www.w3.org/2000/svg">
<path fill-rule="evenodd" clip-rule="evenodd" d="M10.0011 21.2403C7.53287 21.2403 5.2115 20.2812 3.46615 18.5359C1.7208 16.7905 0.761719 14.4691 0.761719 12.0009C0.761719 8.93932 2.27378 6.07936 4.81116 4.35705C5.00125 4.22745 5.22014 4.15833 5.45055 4.15833C5.82784 4.15833 6.1821 4.34553 6.39522 4.65659C6.7466 5.17789 6.61123 5.88639 6.09281 6.24065C4.18042 7.53958 3.03989 9.69391 3.03989 12.0009C3.03989 15.8401 6.16193 18.9621 10.0011 18.9621C13.8374 18.9621 16.9595 15.8401 16.9595 12.0009C16.9595 9.69391 15.819 7.53958 13.9066 6.24065C13.3881 5.88639 13.2528 5.17789 13.607 4.65659C13.8173 4.34553 14.1715 4.15833 14.5517 4.15833C14.7792 4.15833 15.001 4.22745 15.1882 4.35705C17.7256 6.07936 19.2405 8.93932 19.2405 12.0009C19.2405 14.4691 18.2786 16.7905 16.5332 18.5359C14.7879 20.2812 12.4694 21.2403 10.0011 21.2403Z" fill="#8C8C8C"/>
<path fill-rule="evenodd" clip-rule="evenodd" d="M10.0009 12.4905C9.37013 12.4905 8.86035 11.9778 8.86035 11.3499V1.90029C8.86035 1.27243 9.37013 0.759766 10.0009 0.759766C10.6287 0.759766 11.1385 1.27243 11.1385 1.90029V11.3499C11.1385 11.9778 10.6287 12.4905 10.0009 12.4905Z" fill="#8C8C8C"/>
</svg>
