<svg width="24" height="24" viewBox="0 0 24 24" fill="none" xmlns="http://www.w3.org/2000/svg">
<path d="M17 22.75H3C2.53604 22.7494 2.09125 22.5649 1.76319 22.2368C1.43512 21.9087 1.25056 21.464 1.25 21V3C1.25056 2.53604 1.43512 2.09125 1.76319 1.76319C2.09125 1.43512 2.53604 1.25056 3 1.25H17C17.464 1.25056 17.9087 1.43512 18.2368 1.76319C18.5649 2.09125 18.7494 2.53604 18.75 3V14C18.75 14.1989 18.671 14.3897 18.5303 14.5303C18.3897 14.671 18.1989 14.75 18 14.75C17.8011 14.75 17.6103 14.671 17.4697 14.5303C17.329 14.3897 17.25 14.1989 17.25 14V3C17.2492 2.93394 17.2226 2.8708 17.1759 2.82408C17.1292 2.77737 17.0661 2.75078 17 2.75H3C2.93394 2.75078 2.8708 2.77737 2.82408 2.82408C2.77737 2.8708 2.75078 2.93394 2.75 3V21C2.75078 21.0661 2.77737 21.1292 2.82408 21.1759C2.8708 21.2226 2.93394 21.2492 3 21.25H17C17.1879 21.1753 17.3976 21.1768 17.5844 21.2542C17.7712 21.3316 17.9205 21.4788 18.0005 21.6646C18.0394 21.754 18.0602 21.8503 18.0615 21.9478C18.0628 22.0453 18.0447 22.1422 18.0082 22.2326C17.9717 22.3231 17.9175 22.4053 17.8489 22.4746C17.7803 22.5439 17.6985 22.5989 17.6084 22.6362C17.4148 22.7128 17.2082 22.7514 17 22.75Z" fill="#8C8C8C"/>
<path d="M14.5 6.75H5.5C5.30109 6.75 5.11032 6.67098 4.96967 6.53033C4.82902 6.38968 4.75 6.19891 4.75 6C4.75 5.80109 4.82902 5.61032 4.96967 5.46967C5.11032 5.32902 5.30109 5.25 5.5 5.25H14.5C14.6989 5.25 14.8897 5.32902 15.0303 5.46967C15.171 5.61032 15.25 5.80109 15.25 6C15.25 6.19891 15.171 6.38968 15.0303 6.53033C14.8897 6.67098 14.6989 6.75 14.5 6.75Z" fill="#8C8C8C"/>
<path d="M14.5 10.75H5.5C5.30109 10.75 5.11032 10.671 4.96967 10.5303C4.82902 10.3897 4.75 10.1989 4.75 10C4.75 9.80109 4.82902 9.61032 4.96967 9.46967C5.11032 9.32902 5.30109 9.25 5.5 9.25H14.5C14.6989 9.25 14.8897 9.32902 15.0303 9.46967C15.171 9.61032 15.25 9.80109 15.25 10C15.25 10.1989 15.171 10.3897 15.0303 10.5303C14.8897 10.671 14.6989 10.75 14.5 10.75Z" fill="#8C8C8C"/>
<path d="M12 14.75H5.5C5.30109 14.75 5.11032 14.671 4.96967 14.5303C4.82902 14.3897 4.75 14.1989 4.75 14C4.75 13.8011 4.82902 13.6103 4.96967 13.4697C5.11032 13.329 5.30109 13.25 5.5 13.25H12C12.1989 13.25 12.3897 13.329 12.5303 13.4697C12.671 13.6103 12.75 13.8011 12.75 14C12.75 14.1989 12.671 14.3897 12.5303 14.5303C12.3897 14.671 12.1989 14.75 12 14.75Z" fill="#8C8C8C"/>
<path d="M11 18.75H5.5C5.30109 18.75 5.11032 18.671 4.96967 18.5303C4.82902 18.3897 4.75 18.1989 4.75 18C4.75 17.8011 4.82902 17.6103 4.96967 17.4697C5.11032 17.329 5.30109 17.25 5.5 17.25H11C11.1989 17.25 11.3897 17.329 11.5303 17.4697C11.671 17.6103 11.75 17.8011 11.75 18C11.75 18.1989 11.671 18.3897 11.5303 18.5303C11.3897 18.671 11.1989 18.75 11 18.75Z" fill="#8C8C8C"/>
<path d="M18 22.75C17.0605 22.75 16.1422 22.4714 15.361 21.9495C14.5799 21.4275 13.9711 20.6857 13.6116 19.8177C13.2521 18.9498 13.158 17.9947 13.3413 17.0733C13.5246 16.1519 13.9769 15.3055 14.6412 14.6412C15.3055 13.9769 16.1519 13.5246 17.0733 13.3413C17.9947 13.158 18.9498 13.2521 19.8177 13.6116C20.6857 13.9711 21.4275 14.5799 21.9495 15.361C22.4714 16.1422 22.75 17.0605 22.75 18C22.7486 19.2593 22.2477 20.4667 21.3572 21.3572C20.4667 22.2477 19.2593 22.7486 18 22.75ZM18 14.75C17.3572 14.75 16.7289 14.9406 16.1944 15.2977C15.6599 15.6548 15.2434 16.1624 14.9974 16.7563C14.7514 17.3501 14.687 18.0036 14.8124 18.634C14.9379 19.2645 15.2474 19.8436 15.7019 20.2981C16.1564 20.7526 16.7355 21.0622 17.366 21.1876C17.9964 21.313 18.6499 21.2486 19.2437 21.0026C19.8376 20.7566 20.3452 20.3401 20.7023 19.8056C21.0594 19.2711 21.25 18.6428 21.25 18C21.249 17.1384 20.9063 16.3123 20.297 15.703C19.6877 15.0937 18.8616 14.751 18 14.75Z" fill="#8C8C8C"/>
<path d="M17.4999 19.75C17.4014 19.7501 17.3038 19.7308 17.2128 19.6931C17.1218 19.6554 17.0392 19.6 16.9696 19.5303L15.9696 18.5303C15.8996 18.4607 15.8439 18.378 15.8059 18.2869C15.7679 18.1959 15.7482 18.0981 15.748 17.9994C15.7479 17.9007 15.7672 17.803 15.8049 17.7117C15.8426 17.6205 15.8979 17.5376 15.9677 17.4678C16.0375 17.398 16.1204 17.3427 16.2116 17.305C16.3028 17.2673 16.4006 17.248 16.4993 17.2482C16.598 17.2483 16.6957 17.268 16.7868 17.306C16.8779 17.344 16.9606 17.3997 17.0302 17.4697L17.4999 17.9395L18.9696 16.4697C19.1104 16.3299 19.3009 16.2517 19.4993 16.252C19.6977 16.2524 19.8879 16.3314 20.0282 16.4717C20.1685 16.612 20.2475 16.8022 20.2479 17.0006C20.2482 17.199 20.17 17.3895 20.0302 17.5303L18.0302 19.5303C17.9606 19.6 17.878 19.6554 17.787 19.6931C17.696 19.7308 17.5984 19.7501 17.4999 19.75Z" fill="#8C8C8C"/>
</svg>
