<svg width="21" height="21" viewBox="0 0 21 21" fill="none" xmlns="http://www.w3.org/2000/svg">
<g clip-path="url(#clip0_164_1509)">
<path d="M20.4062 9.875C20.4062 14.3633 15.9296 18 10.4062 18C8.95697 18 7.58197 17.75 6.33978 17.3008C5.87494 17.6406 5.11713 18.1055 4.21869 18.4961C3.28119 18.9023 2.15228 19.25 1.03119 19.25C0.777281 19.25 0.550719 19.0977 0.453063 18.8633C0.355406 18.6289 0.410094 18.3633 0.585875 18.1836L0.597594 18.1719C0.609313 18.1602 0.624938 18.1445 0.648375 18.1172C0.691344 18.0703 0.75775 17.9961 0.839781 17.8945C0.999938 17.6992 1.21478 17.4102 1.43353 17.0508C1.82416 16.4023 2.19525 15.5508 2.26947 14.5938C1.09759 13.2656 0.406188 11.6367 0.406188 9.875C0.406188 5.38672 4.88275 1.75 10.4062 1.75C15.9296 1.75 20.4062 5.38672 20.4062 9.875Z" fill="#9CA3AF"/>
</g>
<defs>
<clipPath id="clip0_164_1509">
<path d="M0.40625 0.5H20.4062V20.5H0.40625V0.5Z" fill="white"/>
</clipPath>
</defs>
</svg>
