<svg width="20" height="21" viewBox="0 0 20 21" fill="none" xmlns="http://www.w3.org/2000/svg">
<g clip-path="url(#clip0_1491_782)">
<path d="M19.9999 9.875C19.9999 14.3633 15.5234 18 9.99994 18C8.55072 18 7.17572 17.75 5.93353 17.3008C5.46869 17.6406 4.71088 18.1055 3.81244 18.4961C2.87494 18.9023 1.74603 19.25 0.624938 19.25C0.371031 19.25 0.144469 19.0977 0.0468127 18.8633C-0.0508435 18.6289 0.00384394 18.3633 0.179625 18.1836L0.191344 18.1719C0.203063 18.1602 0.218688 18.1445 0.242125 18.1172C0.285094 18.0703 0.3515 17.9961 0.433531 17.8945C0.593688 17.6992 0.808531 17.4102 1.02728 17.0508C1.41791 16.4023 1.789 15.5508 1.86322 14.5938C0.691344 13.2656 -6.23007e-05 11.6367 -6.23007e-05 9.875C-6.23007e-05 5.38672 4.4765 1.75 9.99994 1.75C15.5234 1.75 19.9999 5.38672 19.9999 9.875Z" fill="#9CA3AF"/>
</g>
<defs>
<clipPath id="clip0_1491_782">
<path d="M0 0.5H20V20.5H0V0.5Z" fill="white"/>
</clipPath>
</defs>
</svg>
