<svg width="49" height="48" viewBox="0 0 49 48" fill="none" xmlns="http://www.w3.org/2000/svg">
<path d="M24.5 0C37.7548 0 48.5 10.7452 48.5 24C48.5 37.2548 37.7548 48 24.5 48C11.2452 48 0.5 37.2548 0.5 24C0.5 10.7452 11.2452 0 24.5 0Z" fill="white" fill-opacity="0.2"/>
<path d="M24.5 0C37.7548 0 48.5 10.7452 48.5 24C48.5 37.2548 37.7548 48 24.5 48C11.2452 48 0.5 37.2548 0.5 24C0.5 10.7452 11.2452 0 24.5 0Z" stroke="#E5E7EB"/>
<path fill-rule="evenodd" clip-rule="evenodd" d="M35.3532 10.556C35.2626 10.1577 34.9085 9.875 34.5 9.875C34.0915 9.875 33.7374 10.1577 33.6468 10.556L33.1626 12.685C32.9387 13.6698 32.1698 14.4387 31.185 14.6627L29.056 15.1468C28.6577 15.2373 28.375 15.5915 28.375 16C28.375 16.4085 28.6577 16.7626 29.056 16.8532L31.185 17.3374C32.1698 17.5613 32.9387 18.3302 33.1626 19.315L33.6468 21.444C33.7374 21.8423 34.0915 22.125 34.5 22.125C34.9085 22.125 35.2626 21.8423 35.3532 21.444L35.8374 19.315C36.0613 18.3302 36.8302 17.5613 37.815 17.3374L39.944 16.8532C40.3423 16.7626 40.625 16.4085 40.625 16C40.625 15.5915 40.3423 15.2373 39.944 15.1468L37.815 14.6627C36.8302 14.4387 36.0613 13.6698 35.8374 12.685L35.3532 10.556Z" fill="white"/>
<path d="M23.125 16C23.6083 16 24 16.3917 24 16.875V35.25C24 35.7333 23.6083 36.125 23.125 36.125C22.6417 36.125 22.25 35.7333 22.25 35.25V16.875C22.25 16.3917 22.6417 16 23.125 16Z" fill="white"/>
<path d="M16.125 19.0625C16.125 18.5792 15.7332 18.1875 15.25 18.1875C14.7668 18.1875 14.375 18.5792 14.375 19.0625V33.0625C14.375 33.5458 14.7668 33.9375 15.25 33.9375C15.7332 33.9375 16.125 33.5458 16.125 33.0625V19.0625Z" fill="white"/>
<path d="M20.0625 20.8125C20.0625 20.3292 19.6708 19.9375 19.1875 19.9375C18.7042 19.9375 18.3125 20.3292 18.3125 20.8125V31.3125C18.3125 31.7958 18.7042 32.1875 19.1875 32.1875C19.6708 32.1875 20.0625 31.7958 20.0625 31.3125V20.8125Z" fill="white"/>
<path d="M27.9375 19.5C27.9375 19.0167 27.5458 18.625 27.0625 18.625C26.5792 18.625 26.1875 19.0167 26.1875 19.5V32.625C26.1875 33.1083 26.5792 33.5 27.0625 33.5C27.5458 33.5 27.9375 33.1083 27.9375 32.625V19.5Z" fill="white"/>
<path d="M31 21.6875C31.4833 21.6875 31.875 22.0792 31.875 22.5625V29.5625C31.875 30.0458 31.4833 30.4375 31 30.4375C30.5167 30.4375 30.125 30.0458 30.125 29.5625V22.5625C30.125 22.0792 30.5167 21.6875 31 21.6875Z" fill="url(#paint0_linear_265_1437)"/>
<defs>
<linearGradient id="paint0_linear_265_1437" x1="47.9068" y1="41.4288" x2="24.6234" y2="14.1901" gradientUnits="userSpaceOnUse">
<stop offset="0.00265844" stop-color="white"/>
<stop offset="1" stop-color="white"/>
</linearGradient>
</defs>
</svg>
