<svg width="90" height="90" viewBox="0 0 90 90" fill="none" xmlns="http://www.w3.org/2000/svg">
<g clip-path="url(#clip0_1040_478)">
<path d="M76.1377 11.7963L35.3837 52.5503C34.2853 53.6488 32.5042 53.6488 31.4058 52.5503L13.8623 35.0068L0 48.8691L26.4633 75.3328C28.3017 77.1711 30.7949 78.2038 33.3946 78.2038C35.994 78.2038 38.4875 77.171 40.3256 75.3328L90 25.6584L76.1377 11.7963Z" fill="#32BD00"/>
<g opacity="0.1">
<path d="M85.4158 21.0741L32.9748 73.5152C31.5239 74.966 29.6995 75.9554 27.7283 76.3965C29.3741 77.5628 31.3508 78.2035 33.3946 78.2035C35.994 78.2035 38.4875 77.1706 40.3256 75.3325L90 25.6581L85.4158 21.0741Z" fill="black"/>
</g>
</g>
<defs>
<clipPath id="clip0_1040_478">
<rect width="90" height="90" fill="white"/>
</clipPath>
</defs>
</svg>
