<svg width="40" height="40" viewBox="0 0 40 40" fill="none" xmlns="http://www.w3.org/2000/svg">
<path d="M20 0C31.0457 0 40 8.95431 40 20C40 31.0457 31.0457 40 20 40C8.95431 40 0 31.0457 0 20C0 8.95431 8.95431 0 20 0Z" fill="#F9FAFB" fill-opacity="0.54"/>
<path d="M20 0C31.0457 0 40 8.95431 40 20C40 31.0457 31.0457 40 20 40C8.95431 40 0 31.0457 0 20C0 8.95431 8.95431 0 20 0Z" stroke="#E5E7EB"/>
<path d="M25.3438 19.4062H13.4688C13.3113 19.4062 13.1603 19.4688 13.0489 19.5802C12.9376 19.6915 12.875 19.8425 12.875 20C12.875 20.1575 12.9376 20.3085 13.0489 20.4198C13.1603 20.5312 13.3113 20.5938 13.4688 20.5938H25.3438C25.5012 20.5938 25.6522 20.5312 25.7636 20.4198C25.8749 20.3085 25.9375 20.1575 25.9375 20C25.9375 19.8425 25.8749 19.6915 25.7636 19.5802C25.6522 19.4688 25.5012 19.4062 25.3438 19.4062Z" fill="#4B5563"/>
<path d="M25.0979 20L20.1733 24.9234C20.0618 25.0349 19.9992 25.1861 19.9992 25.3438C19.9992 25.5014 20.0618 25.6526 20.1733 25.7641C20.2848 25.8756 20.436 25.9383 20.5937 25.9383C20.7513 25.9383 20.9026 25.8756 21.014 25.7641L26.3578 20.4204C26.4131 20.3652 26.457 20.2997 26.4869 20.2276C26.5168 20.1554 26.5322 20.0781 26.5322 20C26.5322 19.9219 26.5168 19.8446 26.4869 19.7724C26.457 19.7003 26.4131 19.6348 26.3578 19.5796L21.014 14.2359C20.9026 14.1244 20.7513 14.0618 20.5937 14.0618C20.436 14.0618 20.2848 14.1244 20.1733 14.2359C20.0618 14.3474 19.9992 14.4986 19.9992 14.6563C19.9992 14.8139 20.0618 14.9651 20.1733 15.0766L25.0979 20Z" fill="#4B5563"/>
</svg>
