<svg width="49" height="48" viewBox="0 0 49 48" fill="none" xmlns="http://www.w3.org/2000/svg">
<path d="M24.5 0C37.7548 0 48.5 10.7452 48.5 24C48.5 37.2548 37.7548 48 24.5 48C11.2452 48 0.5 37.2548 0.5 24C0.5 10.7452 11.2452 0 24.5 0Z" fill="white" fill-opacity="0.2"/>
<path d="M24.5 0C37.7548 0 48.5 10.7452 48.5 24C48.5 37.2548 37.7548 48 24.5 48C11.2452 48 0.5 37.2548 0.5 24C0.5 10.7452 11.2452 0 24.5 0Z" stroke="#E5E7EB"/>
<path d="M34.9157 29.2635C26.7588 30.2751 26.0834 31.0952 25.2503 41C24.4172 31.0952 23.7418 30.2751 15.585 29.2635C23.7418 28.2519 24.4172 27.4317 25.2503 17.5269C26.0834 27.4317 26.7588 28.2518 34.9157 29.2635Z" fill="white"/>
<path d="M36.0682 15.0398C30.4806 15.7328 30.0179 16.2946 29.4472 23.0796C28.8765 16.2946 28.4138 15.7328 22.8262 15.0398C28.4139 14.3469 28.8765 13.785 29.4472 7C30.018 13.785 30.4806 14.3469 36.0682 15.0398Z" fill="white"/>
<path d="M23.6895 18.9928C19.1505 19.5559 18.7747 20.0122 18.3111 25.5238C17.8474 20.0122 17.4716 19.5559 12.9326 18.9928C17.4716 18.4299 17.8474 17.9735 18.3111 12.4619C18.7747 17.9735 19.1505 18.4299 23.6895 18.9928Z" fill="white"/>
</svg>
