<svg width="20" height="18" viewBox="0 0 20 18" fill="none" xmlns="http://www.w3.org/2000/svg">
<path d="M1.85938 10.2344L8.91797 16.8242C9.21094 17.0977 9.59766 17.25 10 17.25C10.4023 17.25 10.7891 17.0977 11.082 16.8242L18.1406 10.2344C19.3281 9.12893 20 7.57815 20 5.95706V5.73049C20 3.00003 18.0273 0.671901 15.3359 0.222682C13.5547 -0.0741927 11.7422 0.507839 10.4688 1.78128L10 2.25003L9.53125 1.78128C8.25781 0.507839 6.44531 -0.0741927 4.66406 0.222682C1.97266 0.671901 0 3.00003 0 5.73049V5.95706C0 7.57815 0.671875 9.12893 1.85938 10.2344Z" fill="#9CA3AF"/>
</svg>
