<svg width="90" height="90" viewBox="0 0 90 90" fill="none" xmlns="http://www.w3.org/2000/svg">
<path d="M26.9256 73.2157C29.923 76.2141 28.6841 80.8684 28.7416 86.8084C22.7989 86.7536 18.1499 87.9871 15.1507 84.9906C13.4965 83.3336 13.4713 80.6724 15.0959 79.0479C16.5667 77.577 18.0511 77.5914 20.2879 78.3556C19.5237 76.1206 19.5102 74.6362 20.981 73.1627C22.6083 71.5354 25.2686 71.5606 26.9256 73.2157Z" fill="url(#paint0_linear_256_360)"/>
<path d="M26.9256 73.2157C25.2687 71.5606 22.6084 71.5354 20.9811 73.1627C20.0964 74.0492 19.7512 74.941 19.7818 75.9965C21.3515 75.2125 23.3276 75.4885 24.6582 76.8173C27.0254 79.1854 26.7503 82.5865 26.5588 86.8381C27.2654 86.8147 27.9937 86.8013 28.7417 86.8084C28.6841 80.8684 29.923 76.2141 26.9256 73.2157Z" fill="url(#paint1_linear_256_360)"/>
<path d="M86.7735 10.0881C88.4025 11.7154 88.3774 14.3766 86.7231 16.0308C83.7239 19.0301 79.0704 17.7921 73.1295 17.8469C73.1852 11.9069 71.9508 7.25791 74.9483 4.25869C76.6052 2.60354 79.2655 2.57837 80.891 4.20295C82.3609 5.67379 82.3465 7.15812 81.5832 9.39315C83.8183 8.62896 85.3026 8.61548 86.7735 10.0881Z" fill="url(#paint2_linear_256_360)"/>
<path d="M76.7896 6.21502C78.1552 4.85116 80.2014 4.59673 81.7892 5.45892C81.5941 5.02827 81.3028 4.61471 80.891 4.20295C79.2655 2.57837 76.6053 2.60354 74.9483 4.25869C71.9518 7.25791 73.1853 11.9069 73.1304 17.8469C73.7508 17.8415 74.3567 17.8496 74.9492 17.8658C74.8036 12.8482 74.1266 8.8798 76.7896 6.21502Z" fill="url(#paint3_linear_256_360)"/>
<path d="M13.5056 51.3186C16.1227 53.9375 20.1684 54.6603 24.687 53.728C27.7914 53.0888 31.1197 51.662 34.3599 49.5375C36.4403 48.1701 38.4865 46.5176 40.4132 44.591C43.5985 41.4083 46.0457 37.8985 47.6604 34.4371C50.7864 34.4227 54.2046 34.9451 57.6884 36.0293C55.4147 41.3139 51.8608 46.5977 47.1408 51.3186C44.8985 53.5599 42.5304 55.5369 40.0976 57.2379C37.1586 59.2958 34.1234 60.951 31.0945 62.1845C21.0432 66.2787 11.0871 65.7195 5.09586 59.7283C-4.1931 50.4393 -0.42789 31.615 13.5056 17.6834C27.4372 3.74991 46.2615 -0.0135093 55.5478 9.27366C59.847 13.5729 61.3484 19.9112 60.3424 26.8644C56.8136 25.7433 53.3064 25.0439 49.9251 24.7382C49.8262 21.9251 48.9263 19.4698 47.1408 17.6834C41.5658 12.112 29.5194 15.122 20.2304 24.4109C10.9442 33.6981 7.93146 45.7463 13.5056 51.3186Z" fill="#FFCC00"/>
<path d="M40.413 44.591C38.4864 46.5177 36.4401 48.1701 34.3597 49.5376C31.1196 51.6611 27.7913 53.0888 24.686 53.7281C20.1682 54.6604 16.1225 53.9375 13.5054 51.3186C12.6999 50.5131 12.0795 49.57 11.6255 48.5217C11.8619 50.9797 12.7511 53.1221 14.3559 54.726C16.973 57.3458 21.0187 58.0678 25.5374 57.1364C28.6418 56.4962 31.9701 55.0694 35.2102 52.945C37.2915 51.5775 39.3378 49.9251 41.2635 47.9984C44.4488 44.8158 46.8952 41.3059 48.5107 37.8446C50.9813 37.8338 53.6362 38.1592 56.3603 38.8308C56.8422 37.8994 57.2864 36.9644 57.6882 36.0294C54.2035 34.9451 50.7862 34.4228 47.6603 34.4372C46.0447 37.8985 43.5983 41.4084 40.413 44.591Z" fill="#FFE168"/>
<path d="M14.3559 21.0908C28.2876 7.1573 47.1119 3.39388 56.399 12.6811C58.2016 14.4836 59.5107 16.6459 60.3504 19.0607C59.7399 15.2577 58.163 11.8881 55.5476 9.27366C46.2614 -0.0135093 27.4371 3.74991 13.5054 17.6834C2.28083 28.9062 -2.34298 43.3035 1.13903 53.3342C-0.412724 43.6263 4.34864 31.0972 14.3559 21.0908Z" fill="#FFE168"/>
<path d="M49.8657 23.8715C49.8936 24.1565 49.9152 24.4451 49.926 24.7372C50.0177 24.7462 50.1121 24.7579 50.2047 24.7669C50.1049 24.4612 49.9925 24.1619 49.8657 23.8715Z" fill="#FFE168"/>
<path d="M50.2658 63.6687C62.3401 68.8446 74.6444 67.1669 77.7489 59.9215C80.8542 52.6788 73.5836 42.6121 61.5093 37.4354C60.2345 36.8906 58.9569 36.4249 57.6884 36.0293C54.2037 34.945 50.7864 34.4227 47.6604 34.4371C41.1423 34.464 35.9018 36.8052 34.0263 41.1844C32.9349 43.7305 33.1264 46.6255 34.3599 49.5375C31.1197 51.661 27.7914 53.0887 24.6861 53.728C21.5772 47.9102 20.8175 41.8156 23.0957 36.4986C26.7971 27.8659 37.5012 23.6197 49.9251 24.7381C53.3064 25.0438 56.8136 25.7433 60.3424 26.8644C61.9786 27.3822 63.6221 27.99 65.2557 28.6921C83.367 36.4527 93.8526 52.534 88.6795 64.6055C83.5055 76.6798 64.6281 80.1753 46.5186 72.4147C40.4042 69.793 35.1609 66.2256 31.0936 62.1844C34.1225 60.9509 37.1586 59.2958 40.0976 57.2387C42.8343 59.7282 46.2885 61.9659 50.2658 63.6687Z" fill="url(#paint4_linear_256_360)"/>
<path d="M33.9229 48.3715C33.9588 48.8093 34.0217 49.2516 34.1117 49.6967C34.1944 49.6427 34.2771 49.5915 34.3598 49.5375C34.1953 49.1482 34.0505 48.7589 33.9229 48.3715Z" fill="url(#paint5_linear_256_360)"/>
<path d="M23.672 39.2802C27.3725 30.6467 38.0774 26.4005 50.5014 27.5189C53.8818 27.8255 57.3899 28.5249 60.9178 29.646C62.554 30.1639 64.1975 30.7716 65.832 31.4729C78.3809 36.851 87.2671 46.2227 89.8213 55.4883C88.4394 45.3623 79.0651 34.6088 65.2566 28.6921C63.6221 27.99 61.9786 27.3822 60.3424 26.8644C56.8145 25.7433 53.3064 25.0438 49.926 24.7381C37.5021 23.6197 26.7971 27.8659 23.0966 36.4986C21.5071 40.2072 21.3974 44.2933 22.5302 48.4002C22.0987 45.2445 22.4421 42.1491 23.672 39.2802Z" fill="url(#paint6_linear_256_360)"/>
<path d="M40.6729 60.0196C43.4096 62.5099 46.8638 64.7468 50.8412 66.4496C62.9154 71.6263 75.2198 69.9486 78.3242 62.7032C79.27 60.4979 79.2511 58.03 78.4303 55.5189C78.5552 57.0536 78.3413 58.5397 77.7488 59.9216C74.6444 67.167 62.34 68.8455 50.2658 63.6688C46.2884 61.966 42.8343 59.7283 40.0976 57.2379C37.1586 59.2958 34.1234 60.951 31.0945 62.1845C31.8011 62.8866 32.5455 63.5744 33.3223 64.2451C35.7992 63.1114 38.2689 61.7026 40.6729 60.0196Z" fill="url(#paint7_linear_256_360)"/>
<defs>
<linearGradient id="paint0_linear_256_360" x1="21.4205" y1="71.9581" x2="21.4205" y2="87.0143" gradientUnits="userSpaceOnUse">
<stop stop-color="#F40303"/>
<stop offset="1" stop-color="#8E0202"/>
</linearGradient>
<linearGradient id="paint1_linear_256_360" x1="24.3637" y1="71.9581" x2="24.3637" y2="86.8381" gradientUnits="userSpaceOnUse">
<stop stop-color="#F40303"/>
<stop offset="1" stop-color="#8E0202"/>
</linearGradient>
<linearGradient id="paint2_linear_256_360" x1="80.4519" y1="3.00073" x2="80.4519" y2="18.0544" gradientUnits="userSpaceOnUse">
<stop stop-color="#F40303"/>
<stop offset="1" stop-color="#8E0202"/>
</linearGradient>
<linearGradient id="paint3_linear_256_360" x1="72.9246" y1="10.4333" x2="81.7892" y2="10.4333" gradientUnits="userSpaceOnUse">
<stop offset="0.278846" stop-color="#F40303"/>
<stop offset="1" stop-color="#8E0202"/>
</linearGradient>
<linearGradient id="paint4_linear_256_360" x1="21.7755" y1="50.5534" x2="90" y2="50.5534" gradientUnits="userSpaceOnUse">
<stop offset="0.278846" stop-color="#F4AB03"/>
<stop offset="1" stop-color="#FFCC00"/>
</linearGradient>
<linearGradient id="paint5_linear_256_360" x1="33.9229" y1="49.0341" x2="34.3598" y2="49.0341" gradientUnits="userSpaceOnUse">
<stop offset="0.278846" stop-color="#F4AB03"/>
</linearGradient>
<linearGradient id="paint6_linear_256_360" x1="21.7767" y1="40.0252" x2="89.8213" y2="40.0252" gradientUnits="userSpaceOnUse">
<stop offset="0.278846" stop-color="#F4AB03"/>
</linearGradient>
<linearGradient id="paint7_linear_256_360" x1="31.0945" y1="62.487" x2="79.0401" y2="62.487" gradientUnits="userSpaceOnUse">
<stop offset="0.278846" stop-color="#F4AB03"/>
</linearGradient>
</defs>
</svg>
