<svg width="20" height="21" viewBox="0 0 20 21" fill="none" xmlns="http://www.w3.org/2000/svg">
<path d="M5.06545 20.0161L5.43395 19.9131C5.78839 19.8141 5.99542 19.4464 5.89638 19.092L1.68333 4.01512C1.62388 3.80235 1.48234 3.62191 1.28985 3.5135C1.09735 3.40509 0.869679 3.37759 0.65691 3.43705L0.609321 3.45034C0.166226 3.57414 -0.0926151 4.03369 0.0311807 4.47679L4.24433 19.5536C4.34337 19.9081 4.711 20.1152 5.06545 20.0161Z" fill="#9CA3AF"/>
<path d="M19.9019 9.48004C18.5658 8.81385 17.3298 7.96353 16.23 6.95393C16.1376 6.8693 16.1014 6.7394 16.1369 6.61918C16.6818 4.55764 17.0865 2.46156 17.3481 0.345325C17.3896 -0.00667346 17.1998 -0.110202 16.9996 0.131365C13.0724 4.82813 6.27744 -0.727926 2.23291 3.54092C2.28147 3.63184 2.31967 3.72791 2.34679 3.82735L5.07996 13.6143C9.13139 9.39721 15.9022 14.9188 19.8225 10.2323C20.0226 9.99078 20.0606 9.54906 19.9019 9.48004Z" fill="#9CA3AF"/>
</svg>
