<svg width="20" height="21" viewBox="0 0 20 21" fill="none" xmlns="http://www.w3.org/2000/svg">
<path d="M5.05515 20.2946L5.42289 20.1919C5.77661 20.093 5.98322 19.7261 5.88438 19.3724L1.67991 4.3262C1.62058 4.11386 1.47932 3.93379 1.28722 3.8256C1.09512 3.71741 0.86791 3.68996 0.655574 3.7493L0.608082 3.76256C0.165888 3.88611 -0.0924262 4.34474 0.0311178 4.78693L4.23569 19.8331C4.33454 20.1868 4.70142 20.3935 5.05515 20.2946Z" fill="#9CA3AF"/>
<path d="M19.8613 9.78003C18.5279 9.11519 17.2945 8.2666 16.1969 7.25906C16.1047 7.1746 16.0686 7.04497 16.1039 6.92499C16.6478 4.86764 17.0516 2.77583 17.3128 0.663898C17.3541 0.312615 17.1647 0.209297 16.9649 0.450373C13.0457 5.13758 6.26458 -0.40717 2.22827 3.85299C2.27673 3.94372 2.31485 4.03961 2.34192 4.13884L5.06953 13.9059C9.11272 9.69737 15.8697 15.2077 19.7821 10.5308C19.9818 10.2897 20.0197 9.8489 19.8613 9.78003Z" fill="#9CA3AF"/>
</svg>
