<svg width="21" height="22" viewBox="0 0 21 22" fill="none" xmlns="http://www.w3.org/2000/svg">
<path fill-rule="evenodd" clip-rule="evenodd" d="M10.5 0.5C16.299 0.5 21 5.201 21 11C21 16.799 16.299 21.5 10.5 21.5C4.701 21.5 0 16.799 0 11C0 5.201 4.701 0.5 10.5 0.5Z" fill="#FBFBFB"/>
<path fill-rule="evenodd" clip-rule="evenodd" d="M20.4454 7.625H0.553711C1.95925 3.48166 5.88117 0.5 10.4995 0.5C15.1179 0.5 19.0398 3.48166 20.4454 7.625Z" fill="#32AB45"/>
<path fill-rule="evenodd" clip-rule="evenodd" d="M20.4454 14.375C19.0398 18.5183 15.1179 21.5 10.4995 21.5C5.88117 21.5 1.95925 18.5183 0.553711 14.375H20.4454Z" fill="#1D1D1D"/>
<path fill-rule="evenodd" clip-rule="evenodd" d="M5.625 1.69788V20.3021C2.2809 18.5459 0 15.0393 0 11C0 6.96064 2.2809 3.45404 5.625 1.69788Z" fill="#E92B2B"/>
</svg>
