<svg width="24" height="24" viewBox="0 0 24 24" fill="none" xmlns="http://www.w3.org/2000/svg">
<path d="M0.75 12C0.75 14.2125 1.3875 16.275 2.475 18H21.4875C22.575 16.275 23.2125 14.2125 23.2125 12C23.2125 9.7875 22.575 7.725 21.4875 6H2.475C1.3875 7.725 0.75 9.7875 0.75 12Z" fill="#F9F9F9"/>
<path d="M21.5251 6C19.5376 2.85 16.0126 0.75 12.0001 0.75C7.9876 0.75 4.4626 2.85 2.4751 6H21.5251ZM2.4751 18C4.4626 21.15 7.9876 23.25 12.0001 23.25C16.0126 23.25 19.5376 21.15 21.5251 18H2.4751Z" fill="#ED4C5C"/>
<path d="M8.8125 16.875C8.8125 16.875 11.25 15.2625 14.1 16.6875V16.0875C14.1 16.0875 11.7 14.5125 13.725 14.2875C15.75 14.0625 16.875 15.1125 16.875 15.1125V14.5875C16.875 14.5875 13.425 12.75 16.3875 13.4625V12.9375C16.3875 12.9375 13.725 12 15.3375 12H16.0125V11.6625C16.0125 11.6625 13.275 11.2875 15.5625 11.1375V10.875C15.5625 10.875 11.4375 8.9625 14.5125 9.7125V9.3375C14.5125 9.3375 13.0125 9.0375 14.175 8.8875C14.175 8.8875 13.575 8.1 12.6 8.1C11.625 8.1 11.775 7.125 11.775 7.125L10.5375 8.4375C10.5375 8.4375 11.4 8.3625 10.0125 9.075C10.0125 9.075 11.175 9.1875 8.55 10.725C8.55 10.725 9.525 10.35 9.525 10.9875C9.525 11.625 7.8 12.4875 7.8 12.4875L7.95 12.9C7.95 12.9 9.15 11.9625 9.075 12.6C9 13.2375 7.125 14.2125 7.125 14.2125L7.3125 14.5125C7.3125 14.5125 8.85 13.6125 8.8875 13.9875C8.8875 13.9875 9.1125 14.25 7.6125 14.7375L7.8 15.0375C7.8 15.0375 10.0875 13.9125 10.6875 14.7375C11.2875 15.5625 8.775 16.425 8.775 16.425L8.8125 16.875Z" fill="#83BF4F"/>
<path d="M11.1749 10.3125C11.3613 10.3125 11.5124 10.1614 11.5124 9.97501C11.5124 9.78862 11.3613 9.63751 11.1749 9.63751C10.9885 9.63751 10.8374 9.78862 10.8374 9.97501C10.8374 10.1614 10.9885 10.3125 11.1749 10.3125Z" fill="#F9F9F9"/>
<path d="M12.525 10.875C12.7114 10.875 12.8625 10.7239 12.8625 10.5375C12.8625 10.3511 12.7114 10.2 12.525 10.2C12.3386 10.2 12.1875 10.3511 12.1875 10.5375C12.1875 10.7239 12.3386 10.875 12.525 10.875Z" fill="#F9F9F9"/>
<path d="M9.7501 12.675C9.93649 12.675 10.0876 12.5239 10.0876 12.3375C10.0876 12.1511 9.93649 12 9.7501 12C9.5637 12 9.4126 12.1511 9.4126 12.3375C9.4126 12.5239 9.5637 12.675 9.7501 12.675Z" fill="#F9F9F9"/>
<path d="M13.5001 13.0125C13.6865 13.0125 13.8376 12.8614 13.8376 12.675C13.8376 12.4886 13.6865 12.3375 13.5001 12.3375C13.3137 12.3375 13.1626 12.4886 13.1626 12.675C13.1626 12.8614 13.3137 13.0125 13.5001 13.0125Z" fill="#F9F9F9"/>
<path d="M14.5875 13.35C14.7739 13.35 14.925 13.1989 14.925 13.0125C14.925 12.8261 14.7739 12.675 14.5875 12.675C14.4011 12.675 14.25 12.8261 14.25 13.0125C14.25 13.1989 14.4011 13.35 14.5875 13.35Z" fill="#F9F9F9"/>
<path d="M10.1627 11.1375C10.3491 11.1375 10.5002 10.9864 10.5002 10.8C10.5002 10.6136 10.3491 10.4625 10.1627 10.4625C9.9763 10.4625 9.8252 10.6136 9.8252 10.8C9.8252 10.9864 9.9763 11.1375 10.1627 11.1375Z" fill="#F9F9F9"/>
<path d="M12.0753 12.3375C12.2617 12.3375 12.4128 12.1864 12.4128 12C12.4128 11.8136 12.2617 11.6625 12.0753 11.6625C11.8889 11.6625 11.7378 11.8136 11.7378 12C11.7378 12.1864 11.8889 12.3375 12.0753 12.3375Z" fill="#F9F9F9"/>
</svg>
