<svg width="34" height="34" viewBox="0 0 34 34" fill="none" xmlns="http://www.w3.org/2000/svg">
<g clip-path="url(#clip0_1365_4458)">
<path d="M17 34C26.3888 34 34 26.3888 34 17C34 7.61116 26.3888 0 17 0C7.61116 0 0 7.61116 0 17C0 26.3888 7.61116 34 17 34Z" fill="#D80027"/>
<path d="M27.0472 13.9519H19.3706L16.9999 6.6539L14.6292 13.9519H6.95264L13.1616 18.4609L10.7909 25.759L16.9999 21.25L23.2089 25.759L20.8382 18.4609L27.0472 13.9519ZM14.9015 17.8965L15.705 15.4262H18.3015L19.105 17.8965L17.0065 19.4238L14.9015 17.8965ZM17.8167 13.9519H16.1831L16.9999 11.4352L17.8167 13.9519ZM20.3601 16.9867L19.8554 15.4328H22.4983L20.3601 16.9867ZM14.1511 15.4328L13.6464 16.9867L11.5081 15.4328H14.1511ZM13.5999 21.8941L14.4167 19.3773L15.7382 20.3402L13.5999 21.8941ZM18.255 20.3402L19.5765 19.3773L20.3933 21.8941L18.255 20.3402Z" fill="#6DA544"/>
</g>
<defs>
<clipPath id="clip0_1365_4458">
<rect width="34" height="34" fill="white"/>
</clipPath>
</defs>
</svg>
