<svg width="24" height="24" viewBox="0 0 24 24" fill="none" xmlns="http://www.w3.org/2000/svg">
<g clip-path="url(#clip0_342_1088)">
<mask id="mask0_342_1088" style="mask-type:luminance" maskUnits="userSpaceOnUse" x="0" y="0" width="24" height="24">
<path d="M12 24C18.6274 24 24 18.6274 24 12C24 5.37258 18.6274 0 12 0C5.37258 0 0 5.37258 0 12C0 18.6274 5.37258 24 12 24Z" fill="white"/>
</mask>
<g mask="url(#mask0_342_1088)">
<path d="M-6.03613 0H30.0359V24.048H-6.03613V0Z" fill="#010101"/>
</g>
<mask id="mask1_342_1088" style="mask-type:luminance" maskUnits="userSpaceOnUse" x="0" y="0" width="24" height="24">
<path d="M12 24C18.6274 24 24 18.6274 24 12C24 5.37258 18.6274 0 12 0C5.37258 0 0 5.37258 0 12C0 18.6274 5.37258 24 12 24Z" fill="white"/>
</mask>
<g mask="url(#mask1_342_1088)">
<path d="M-6.03613 0H30.0359V16.032H-6.03613V0Z" fill="white"/>
</g>
<mask id="mask2_342_1088" style="mask-type:luminance" maskUnits="userSpaceOnUse" x="0" y="0" width="24" height="24">
<path d="M12 24C18.6274 24 24 18.6274 24 12C24 5.37258 18.6274 0 12 0C5.37258 0 0 5.37258 0 12C0 18.6274 5.37258 24 12 24Z" fill="white"/>
</mask>
<g mask="url(#mask2_342_1088)">
<path d="M-6.03613 0H30.0359V8.016H-6.03613V0Z" fill="#CE2028"/>
</g>
<mask id="mask3_342_1088" style="mask-type:luminance" maskUnits="userSpaceOnUse" x="0" y="0" width="24" height="24">
<path d="M12 24C18.6274 24 24 18.6274 24 12C24 5.37258 18.6274 0 12 0C5.37258 0 0 5.37258 0 12C0 18.6274 5.37258 24 12 24Z" fill="white"/>
</mask>
<g mask="url(#mask3_342_1088)">
<path d="M10.721 12.1154C10.721 10.8001 10.7319 10.2255 10.7569 10.2085C10.7769 10.195 10.863 10.2639 10.9486 10.3613C11.0341 10.4588 11.1863 10.6154 11.2873 10.7091C11.4464 10.8573 11.463 10.8846 11.4139 10.9171C11.2499 11.0253 11.254 10.9913 11.254 12.2416V13.4164H11.5729C11.856 13.4164 11.9083 13.4059 12.0392 13.3223C12.2018 13.2188 12.2126 13.2325 12.1322 13.4392C12.102 13.5163 12.0683 13.6691 12.057 13.7787L12.0366 13.9779L11.3787 13.9879L10.721 13.9977V12.1142V12.1154ZM3.5085 14.8871C3.43389 14.8576 3.31295 14.7599 3.23368 14.6658C3.08418 14.4879 3.0501 14.4049 3.15054 14.4633C3.30023 14.5505 3.5967 14.6071 3.70242 14.5689C4.09166 14.4276 4.18012 13.8624 3.86937 13.5039C3.80831 13.4337 3.75839 13.3519 3.75839 13.3223C3.75839 13.2926 3.82317 13.2372 3.90241 13.1992C4.01339 13.1458 4.06758 13.0877 4.13862 12.9458C4.21062 12.8017 4.24019 12.7704 4.27485 12.8017C4.32433 12.8464 4.49128 13.2798 4.49128 13.3636C4.49128 13.4078 4.55176 13.4174 4.82495 13.4174H5.15841L5.10637 13.2816C5.07782 13.2068 5.03065 13.1062 5.00166 13.0581C4.95472 12.98 4.95453 12.9663 4.9995 12.9313C5.02732 12.9098 5.11969 12.8391 5.20482 12.7744C5.28993 12.7094 5.36941 12.628 5.38137 12.5931C5.41086 12.5068 5.59545 12.2581 5.62972 12.2581C5.64474 12.2581 5.65727 12.5189 5.65727 12.8377V13.4174H9.82149V11.7567L9.70581 11.6788L9.58991 11.6007L9.47253 11.6982L9.35507 11.7955V12.9824H7.60629C6.64422 12.9824 5.8571 12.9759 5.8571 12.9679C5.8571 12.9552 6.7276 11.677 6.83385 11.5332C6.85593 11.5032 6.91074 11.4218 6.95534 11.3522C6.99998 11.2823 7.04555 11.2172 7.05633 11.2072C7.06749 11.1972 7.11249 11.132 7.15691 11.0624C7.20114 10.9925 7.25301 10.9164 7.2718 10.8931C7.29078 10.8698 7.60605 10.4103 7.97262 9.87191C8.33901 9.33352 8.64976 8.89199 8.66322 8.89065C8.67673 8.8895 8.69572 8.93349 8.70573 8.98809C8.76073 9.29145 8.80281 9.46134 8.84646 9.55468C8.90202 9.67406 8.86955 9.71865 8.72236 9.72357C8.65266 9.72592 8.49198 9.94019 7.73953 11.0357C7.2448 11.7559 6.835 12.3581 6.82893 12.374C6.82266 12.3898 7.26865 12.4027 7.81993 12.4027H8.82215L8.82273 12.0133C8.82292 11.7992 8.83425 11.607 8.84759 11.5864C8.91042 11.4899 9.57304 10.9866 9.61922 10.9999C9.64804 11.0081 9.82533 11.1422 10.0132 11.2978L10.3547 11.5805V13.9969H4.56803L4.5099 14.2306C4.44002 14.5106 4.32594 14.7128 4.17273 14.8269C4.02707 14.9332 3.69969 14.9633 3.50771 14.8868L3.5085 14.8871ZM4.93163 15.0019L4.72439 14.7744L5.14281 14.3235L5.35007 14.551L5.55729 14.7785L5.1389 15.2294L4.93182 15.0014L4.93163 15.0019Z" fill="#067B3F"/>
</g>
<mask id="mask4_342_1088" style="mask-type:luminance" maskUnits="userSpaceOnUse" x="0" y="0" width="24" height="24">
<path d="M12 24C18.6274 24 24 18.6274 24 12C24 5.37258 18.6274 0 12 0C5.37258 0 0 5.37258 0 12C0 18.6274 5.37258 24 12 24Z" fill="white"/>
</mask>
<g mask="url(#mask4_342_1088)">
<path d="M15.8436 9.50447C15.7632 9.44462 15.5931 9.13828 15.5867 9.04087C15.581 8.9573 15.5947 8.93164 15.6493 8.92303C15.745 8.90819 15.789 8.97743 15.8626 9.2573C15.9229 9.48667 15.9166 9.5591 15.8438 9.5045H15.8436V9.50447ZM15.4383 10.1049C15.3794 10.0814 15.3115 10.0398 15.2878 10.0126C15.2514 9.97087 15.2696 9.96676 15.4017 9.98731C15.6395 10.0241 15.7853 9.98025 15.9178 9.83171L16.0342 9.7012L16.1963 9.76382C16.2856 9.79802 16.3785 9.81782 16.4033 9.80743C16.4677 9.78043 16.5842 9.57983 16.5724 9.51585C16.5584 9.43792 16.6241 9.44987 16.6648 9.53248C16.7445 9.69451 16.6779 9.90016 16.5255 9.9628C16.4507 9.99357 16.3785 9.99429 16.2576 9.96635C16.109 9.93148 16.0848 9.93525 16.0196 10.0016C15.874 10.1503 15.6519 10.1901 15.4385 10.1053L15.4383 10.1049ZM18.0713 12.0838C18.0713 10.7636 18.0823 10.1867 18.1075 10.1697C18.1275 10.1562 18.2142 10.2253 18.2999 10.3231C18.3856 10.421 18.5385 10.5781 18.6397 10.6723C18.7995 10.8209 18.8162 10.8484 18.7669 10.8811C18.6023 10.9899 18.6064 10.9558 18.6064 12.2109V13.3904H18.933C19.2293 13.3904 19.2714 13.3816 19.387 13.296C19.4571 13.2444 19.5226 13.2109 19.5328 13.2218C19.5428 13.2328 19.5246 13.3119 19.4925 13.3978C19.4602 13.4837 19.4244 13.6438 19.413 13.7538L19.3921 13.954L18.0711 13.9735V12.0832L18.0713 12.0838ZM15.161 13.154V12.9175H15.0299C14.8538 12.9175 14.6929 13.0837 14.6929 13.2659V13.3904H15.161V13.154ZM14.1659 13.5088C14.1833 12.979 14.2336 12.7993 14.4123 12.6287C14.5498 12.4974 14.7465 12.4351 14.9743 12.4512L15.145 12.4631L15.1552 12.2465C15.1681 11.9719 15.1454 11.8739 15.0614 11.8447C14.9606 11.8101 14.9812 11.6962 15.1033 11.6134C15.163 11.5727 15.3094 11.4323 15.4284 11.3013C15.5473 11.1699 15.6566 11.0627 15.6708 11.0627C15.6851 11.0627 15.6969 11.5864 15.6969 12.2265V13.3904H16.165V12.1929C16.165 11.1525 16.1582 10.9877 16.1124 10.938C16.0836 10.9067 16.0458 10.8809 16.0288 10.8809C15.9539 10.8809 16.0069 10.7353 16.1065 10.6676C16.1662 10.6271 16.3118 10.4875 16.43 10.3574C16.548 10.2271 16.6572 10.129 16.6725 10.1392C16.6875 10.1494 16.7001 10.885 16.7001 11.7741V13.3904H17.1682V10.0804L17.0846 10.0014C17.0386 9.95795 17.0011 9.90256 17.0011 9.8783C17.0011 9.8542 17.105 9.74311 17.2322 9.63131C17.3592 9.51959 17.4956 9.37867 17.5353 9.31819C17.706 9.05731 17.7033 9.01835 17.7033 11.5901V13.9722H14.1504L14.1717 13.5082L14.1659 13.5088Z" fill="#067B3F"/>
</g>
</g>
<defs>
<clipPath id="clip0_342_1088">
<rect width="24" height="24" fill="white"/>
</clipPath>
</defs>
</svg>
