<svg width="25" height="24" viewBox="0 0 25 24" fill="none" xmlns="http://www.w3.org/2000/svg">
<mask id="mask0_342_1051" style="mask-type:luminance" maskUnits="userSpaceOnUse" x="0" y="0" width="25" height="24">
<path d="M12.5 24C19.1274 24 24.5 18.6274 24.5 12C24.5 5.37258 19.1274 0 12.5 0C5.87258 0 0.5 5.37258 0.5 12C0.5 18.6274 5.87258 24 12.5 24Z" fill="white"/>
</mask>
<g mask="url(#mask0_342_1051)">
<path d="M-5.5 0H30.5V24H-5.5V0Z" fill="#006C35"/>
</g>
<mask id="mask1_342_1051" style="mask-type:luminance" maskUnits="userSpaceOnUse" x="0" y="0" width="25" height="24">
<path d="M12.5 24C19.1274 24 24.5 18.6274 24.5 12C24.5 5.37258 19.1274 0 12.5 0C5.87258 0 0.5 5.37258 0.5 12C0.5 18.6274 5.87258 24 12.5 24Z" fill="white"/>
</mask>
<g mask="url(#mask1_342_1051)">
<path fill-rule="evenodd" clip-rule="evenodd" d="M17.1495 17.576C17.15 17.5758 17.1505 17.5763 17.1509 17.576C17.5892 17.5975 18.001 17.5802 18.4395 17.6015C18.5089 17.6606 18.4742 17.7958 18.429 17.8207C18.4269 17.8216 18.4236 17.823 18.4215 17.8235C18.4199 17.824 18.417 17.8235 18.4154 17.8235C18.4138 17.8235 18.4112 17.824 18.4096 17.8235C18.2668 17.82 18.1846 17.8167 18.0421 17.8132C18.0418 17.8059 18.0409 17.7984 18.039 17.7921C18.0053 17.692 17.7606 17.6986 17.7029 17.7771C17.7022 17.7782 17.7006 17.7804 17.6999 17.7815C17.6989 17.7832 17.6978 17.786 17.6971 17.7876C17.6961 17.7895 17.6947 17.793 17.694 17.7951C17.6931 17.7979 17.6928 17.8024 17.6924 17.8057C17.6921 17.8092 17.6908 17.8139 17.691 17.8176C17.4985 17.8406 17.3254 17.8113 17.1329 17.804C17.0764 17.7337 17.083 17.6067 17.1495 17.576ZM16.9454 16.4915C16.9451 16.4918 16.9442 16.4927 16.944 16.4932C16.6595 16.566 16.6684 16.8614 16.8509 16.991C13.8465 16.991 9.23563 16.9401 8.24702 16.9401C7.69363 16.9401 5.94355 16.874 5.90983 16.874C6.28531 17.4229 6.82903 17.5347 7.54036 17.546C8.87488 17.546 15.0582 17.5296 16.8179 17.5296C16.6927 17.7517 16.8291 18.1092 16.9273 18.1746C16.9294 18.176 16.9327 18.1781 16.9348 18.179C16.9385 18.1809 16.9433 18.1828 16.9468 18.1835C16.9479 18.184 16.9503 18.1835 16.9512 18.1835C17.0679 18.2111 17.119 18.1268 17.1584 18.0651C17.3473 18.0817 18.4109 18.0972 18.5084 18.0635C18.5087 18.0635 18.5096 18.0623 18.5098 18.0621C18.5757 18.1591 18.6411 18.2505 18.7662 18.2346C18.9856 18.1875 19.1584 18.1638 19.1637 17.7185C19.1637 17.7185 19.1415 16.96 18.6434 17.0076C18.5255 17.0254 18.1948 17.0587 18.1948 17.0587C17.8121 17.013 17.5315 17.0083 17.1012 16.9926C17.1411 16.9422 17.2112 16.7381 17.1254 16.664C17.1029 16.6455 17.0696 16.6352 17.0234 16.6387C17.023 16.6387 17.0223 16.6387 17.0218 16.6387C17.0211 16.6385 17.0195 16.6387 17.0188 16.6387C17.0185 16.6385 17.0176 16.6373 17.0173 16.6371C17.0162 16.6366 17.0141 16.6364 17.0129 16.6357C17.0105 16.634 17.0075 16.6308 17.0054 16.6282C17.0049 16.6275 17.0028 16.6258 17.0023 16.6251C16.9805 16.5935 16.9688 16.5159 16.9543 16.4963C16.9541 16.496 16.9531 16.4948 16.9529 16.4946C16.9526 16.4946 16.9515 16.4932 16.9512 16.4932C16.9508 16.4927 16.9489 16.4918 16.9484 16.4916C16.9482 16.4916 16.947 16.4916 16.9468 16.4916C16.9466 16.4918 16.9456 16.4915 16.9454 16.4915ZM19.5153 11.2884C19.4797 11.2896 19.4422 11.2945 19.3878 11.299C19.329 11.3114 19.3086 11.3372 19.2978 11.4084C19.302 11.5164 19.3681 11.5111 19.4359 11.5539C19.475 11.6037 19.5005 11.6489 19.4328 11.7309C19.3686 11.7897 19.3229 11.8221 19.2589 11.8809C19.2287 11.9325 19.2097 12.0119 19.3023 12.0368C19.4734 12.0851 19.8692 11.8277 19.8692 11.8223C19.9335 11.7742 19.9121 11.6828 19.9067 11.6828C19.8695 11.6402 19.7851 11.6658 19.7284 11.6589C19.7014 11.6589 19.6126 11.6458 19.6548 11.5673C19.6899 11.5186 19.7031 11.4895 19.7267 11.4292C19.7534 11.3707 19.73 11.3311 19.6339 11.2989C19.5849 11.2901 19.5509 11.2872 19.5153 11.2884ZM13.3637 11.0589C13.3428 11.0578 13.3203 11.0611 13.2976 11.0723C13.2931 11.0723 13.0958 11.2059 13.0323 11.2989C12.9934 11.3285 12.9978 11.354 13.0097 11.4054C13.04 11.475 13.0932 11.4532 13.1537 11.4204C13.2338 11.4094 13.2727 11.4621 13.2662 11.5584C13.2291 11.6787 13.2826 11.7234 13.2826 11.731C13.2826 11.7385 13.3599 11.8048 13.4506 11.752C13.6421 11.6789 13.7614 11.6076 14.0298 11.5493C14.1001 11.5481 14.0961 11.3597 13.9848 11.3529C13.8395 11.3602 13.7054 11.3676 13.5601 11.4818C13.4708 11.5026 13.4556 11.4483 13.4356 11.3993C13.4129 11.2784 13.4867 11.193 13.4717 11.1023C13.4757 11.1063 13.4265 11.0622 13.3637 11.0589ZM3.75597 10.469C3.74397 10.4693 3.72009 10.5049 3.68848 10.5455C3.40648 10.9948 3.3814 11.6653 3.53704 11.8655C3.61977 11.9599 3.75597 12.0016 3.85648 11.9719C4.03368 11.8952 4.11148 11.5364 4.06956 11.4049C4.01052 11.3126 3.9636 11.2978 3.90456 11.3765C3.77988 11.6297 3.72784 11.4564 3.71707 11.3149C3.69784 11.0468 3.72384 10.7998 3.75292 10.604C3.76857 10.5037 3.7679 10.4686 3.75597 10.469ZM11.2412 10.1435C11.2468 10.143 11.2517 10.1435 11.2576 10.1435H11.2607C11.4517 10.1953 11.7332 10.2007 11.9776 10.226C12.1768 10.2387 12.275 10.3945 12.0887 10.4599C11.9047 10.5229 11.728 10.5722 11.7271 10.8379C11.7514 10.9697 11.7463 11.0388 11.7257 11.0705C11.724 11.0728 11.7214 11.0761 11.7196 11.0779C11.7193 11.0782 11.7184 11.0791 11.7182 11.0794C11.7179 11.0798 11.717 11.0808 11.7167 11.081C11.7162 11.0813 11.7153 11.0822 11.7151 11.0824L11.7137 11.084C11.7132 11.0843 11.7111 11.0852 11.7107 11.0855C11.7081 11.0871 11.7045 11.089 11.7017 11.0899C11.6992 11.0909 11.6954 11.0911 11.6926 11.0915C11.649 11.0979 11.5855 11.0562 11.5381 11.0315C11.4247 10.95 11.1064 10.7529 11.0611 10.3294C11.0546 10.2339 11.1261 10.1514 11.2412 10.1435ZM8.17646 9.7249C8.10218 9.73006 8.03565 9.7699 8.06565 9.8749C8.06114 9.9511 8.27608 10.0437 8.28897 10.2199C8.31993 10.2925 8.24308 10.5253 8.30704 10.5468C8.36589 10.5713 8.44744 10.3861 8.47817 10.214C8.49525 10.1196 8.40432 9.78982 8.25009 9.73102C8.22638 9.72586 8.2013 9.72329 8.17646 9.7249ZM18.4154 9.26295C18.3312 9.27329 18.2511 9.35295 18.2879 9.48043C18.2649 9.55519 18.4023 9.81699 18.4379 9.95599C18.47 10.0549 18.3966 10.3345 18.4634 10.364C18.5251 10.3968 18.6868 10.1978 18.6809 9.94851C18.6987 9.82027 18.6352 9.34755 18.474 9.26739C18.4555 9.26225 18.4349 9.26059 18.4154 9.26295ZM6.35985 9.07426C6.40624 9.07476 6.45525 9.09773 6.48124 9.16287C6.50472 9.22239 6.48244 9.28498 6.45432 9.31594C6.45405 9.31618 6.45456 9.31709 6.45432 9.31733C6.45381 9.31803 6.4534 9.31968 6.4529 9.32038C6.433 9.34594 6.36316 9.33538 6.31324 9.33538C6.25324 9.33257 6.22348 9.32273 6.18736 9.27372C6.17001 9.21936 6.22276 9.16596 6.24576 9.12538C6.246 9.1249 6.24715 9.12418 6.24736 9.12372C6.24993 9.12 6.25389 9.11554 6.2579 9.11177C6.27573 9.09538 6.30688 9.07992 6.34041 9.07596C6.34672 9.07498 6.35308 9.07426 6.35985 9.07426ZM4.82373 8.86126C4.34985 8.8699 3.65565 9.48279 3.63734 9.82287C4.1375 9.58263 4.62873 9.35129 5.13734 9.10287C5.05531 8.9803 5.13242 8.8699 4.82373 8.86126ZM12.8354 8.69626C12.8729 8.69249 12.9219 8.70514 12.969 8.73233C13.0372 8.77193 13.0794 8.83145 13.074 8.87484C13.0737 8.87604 13.0742 8.87813 13.074 8.87928C13.0737 8.88048 13.0714 8.88281 13.0709 8.88375C13.0707 8.88495 13.07 8.88727 13.0695 8.88847C13.0693 8.88912 13.0683 8.89056 13.0679 8.89128C13.0676 8.89195 13.0669 8.89363 13.0665 8.89428C13.0641 8.89805 13.0606 8.90177 13.0576 8.90484C13.0247 8.93554 12.9488 8.93112 12.8776 8.88984C12.8098 8.85072 12.7679 8.79046 12.7726 8.74733C12.7726 8.74618 12.7737 8.74402 12.774 8.74287C12.7751 8.73747 12.7773 8.73255 12.7801 8.72787C12.781 8.72626 12.7817 8.72343 12.7829 8.72175C12.7831 8.72151 12.7843 8.72059 12.7845 8.72035C12.7864 8.718 12.7894 8.71474 12.792 8.71287C12.8028 8.70418 12.8183 8.69811 12.8354 8.69626ZM18.5935 8.5999C18.5886 8.59894 18.583 8.59918 18.5771 8.60129C18.5771 8.60129 17.6621 9.25217 17.6396 9.2749C17.5489 9.35551 17.5941 9.6391 17.6396 9.60629C17.7052 9.63161 18.6261 9.00749 18.6085 8.93436C18.6488 8.93667 18.6681 8.61329 18.5935 8.5999ZM11.9711 8.32829C11.9354 8.3346 11.901 8.36386 11.8885 8.41241C11.8806 8.44402 11.9038 8.49677 11.875 8.51295C11.8585 8.52958 11.7943 8.51974 11.7971 8.43185C11.7971 8.4037 11.7765 8.37303 11.7641 8.35543C11.7514 8.34723 11.7446 8.3449 11.7221 8.3449C11.6945 8.3461 11.6935 8.35337 11.6785 8.37629C11.6722 8.39998 11.6635 8.42321 11.6635 8.4499C11.66 8.4811 11.649 8.49185 11.6261 8.49629C11.6003 8.49629 11.6063 8.4991 11.5855 8.48578C11.5731 8.47239 11.5571 8.46701 11.5571 8.44378C11.5571 8.4199 11.5522 8.38167 11.545 8.36578C11.5342 8.35143 11.5154 8.34535 11.4955 8.34043C11.3877 8.3407 11.3813 8.46327 11.3874 8.5099C11.3795 8.51859 11.3738 8.73982 11.5211 8.80078C11.7184 8.89498 12.189 8.83966 12.0744 8.53543C12.0744 8.50707 12.0669 8.41263 12.0641 8.38685C12.0439 8.33998 12.0066 8.32217 11.9711 8.32829ZM10.3299 8.07046C10.3274 8.07137 10.3248 8.07353 10.3224 8.07492C10.3212 8.07562 10.3192 8.07703 10.318 8.07797C10.2987 8.09227 10.2758 8.1258 10.2249 8.16187C10.1392 8.2596 10.1237 8.32757 10.1291 8.52331C10.1337 8.54412 10.292 8.98383 10.4261 9.29297C10.5162 9.61404 10.5999 9.98203 10.5385 10.3294C10.3271 10.7887 9.90199 11.2006 9.49156 11.4244C9.28252 11.4914 9.10183 11.4685 9.05352 11.4228C9.05308 11.4225 9.05236 11.4218 9.05212 11.4213C8.93188 11.3407 8.92932 11.197 8.93656 11.1724C8.93656 11.1722 8.93656 11.171 8.93656 11.1708C8.93683 11.1706 8.93776 11.1696 8.93803 11.1694C9.28442 10.9282 9.6798 10.733 9.98964 10.0819C10.0811 9.83299 10.1089 9.68371 10.018 9.29883C9.9826 9.15564 9.93876 9.03751 9.84108 8.93583C9.84127 8.93556 9.84223 8.93463 9.84247 8.93439C9.90151 8.90628 10.0543 9.01875 10.078 8.94797C10.0419 8.7642 9.91747 8.51765 9.77656 8.39131C9.65308 8.27928 9.519 8.26639 9.40605 8.3688C9.27873 8.4396 9.2518 8.69388 9.313 8.91629C9.38097 9.08386 9.56469 9.11321 9.69552 9.45046V9.45187C9.69832 9.47297 9.74052 9.70361 9.6744 9.79687C9.62097 9.96353 8.93424 10.5054 8.88552 10.538C8.88501 10.5385 8.88148 10.5403 8.88105 10.5408C8.88081 10.5413 8.87961 10.5422 8.8794 10.5424C8.8794 10.5424 8.87824 10.5436 8.878 10.5438C8.87774 10.544 8.87654 10.5452 8.87654 10.5455C8.8763 10.5455 8.87515 10.5455 8.87493 10.5455C8.87493 10.5455 8.87373 10.5455 8.87349 10.5455C8.8733 10.5452 8.87234 10.544 8.87188 10.5438C8.87213 10.5438 8.87188 10.5424 8.87188 10.5424C8.87164 10.5419 8.87073 10.5398 8.87049 10.5394C8.86838 10.5258 8.8721 10.4913 8.87049 10.4358C8.86603 10.3343 8.90798 10.1048 8.90493 10.0655C8.90493 10.0652 8.90493 10.064 8.90493 10.0638C8.90469 10.0636 8.90373 10.0626 8.90349 10.0624C8.90349 10.0622 8.90349 10.061 8.90349 10.0608C8.90306 10.0608 8.9021 10.0608 8.90189 10.0608C8.67501 10.2075 8.60001 10.6568 8.55849 10.7899C7.98357 11.1872 7.33089 11.4825 6.95493 11.8849C6.75924 12.1905 8.30397 11.5338 8.48349 11.4544C8.48515 11.4556 8.48654 11.4574 8.488 11.4588C8.5222 11.4963 8.52501 11.6274 8.62745 11.7455C8.78825 11.963 9.12948 12.0968 9.46156 12.0138C10.0185 11.8125 10.3393 11.4331 10.6661 11.0119C10.7127 10.9439 10.7858 10.8905 10.8535 10.943C11.0781 11.4455 11.7252 11.8032 12.5621 11.8399C12.7557 11.6044 12.6632 11.4886 12.5847 11.4394C12.5603 11.4235 12.1684 11.2707 12.1075 11.1186C12.0693 10.977 12.1623 10.8513 12.3491 10.7569C12.8863 10.692 13.4146 10.6198 13.9255 10.4555C13.9307 10.2837 14.0319 10.0271 14.0997 9.91551C14.1465 9.83815 14.1768 9.83043 14.188 9.81941C14.1885 9.81915 14.1892 9.81826 14.1897 9.81799C14.1897 9.81775 14.1911 9.81655 14.1911 9.81634C14.1913 9.81615 14.1923 9.81519 14.1925 9.81495C14.1927 9.81447 14.1927 9.81238 14.1925 9.8119C14.193 9.80863 14.1925 9.80275 14.1911 9.7969L14.1041 9.74607L12.3897 9.73858C12.3683 9.73035 12.3526 9.72214 12.3431 9.71441C12.3423 9.71391 12.3407 9.71206 12.34 9.71134C12.3397 9.71115 12.3388 9.71019 12.3385 9.70995C12.3383 9.70971 12.3374 9.70875 12.3371 9.70855C12.3369 9.70783 12.3358 9.70599 12.3355 9.70548C12.3355 9.70524 12.3343 9.70404 12.3341 9.70383C12.3341 9.70383 12.3341 9.70267 12.3341 9.70243C12.3338 9.70219 12.3327 9.70104 12.3327 9.70104C12.3327 9.7008 12.3324 9.6996 12.3327 9.69939C12.3327 9.69939 12.3324 9.69823 12.3327 9.69797C12.3327 9.69773 12.3324 9.69653 12.3327 9.69631C12.3324 9.69612 12.3327 9.69516 12.3327 9.69492C12.3327 9.69492 12.3327 9.69372 12.3327 9.69353C12.3324 9.69329 12.3327 9.69209 12.3327 9.69187C12.3324 9.69187 12.3327 9.69072 12.3327 9.69046C12.3324 9.69022 12.3327 9.68902 12.3327 9.68902C12.3329 9.68859 12.3338 9.68763 12.3341 9.68741C12.3346 9.68669 12.335 9.6853 12.3355 9.68436C12.3439 9.67311 12.3643 9.66257 12.3897 9.65295C12.7989 9.59717 13.5264 9.47787 13.5747 8.77851C13.5672 8.41399 13.4188 8.17543 12.9716 8.10934C12.643 8.13487 12.4089 8.45247 12.4466 8.80239C12.4309 8.89659 12.4785 9.08151 12.3821 9.10239C11.7519 9.16003 11.0643 9.55474 11.0411 9.83739C11.0408 9.83739 11.0396 9.83739 11.0396 9.83739C11.0394 9.83763 11.0382 9.83859 11.038 9.83878C11.0375 9.83902 11.0359 9.83998 11.035 9.84043C11.0345 9.84043 11.0326 9.84043 11.0321 9.84043C11.031 9.8407 11.0286 9.84159 11.0277 9.84185C11.0272 9.84185 11.0265 9.84185 11.0261 9.84185C11.0251 9.84185 11.0237 9.84185 11.023 9.84185C11.0228 9.84185 11.0221 9.84185 11.0216 9.84185C11.0209 9.84185 11.019 9.84185 11.0185 9.84185C11.0169 9.84159 11.0141 9.8407 11.0127 9.84043C10.9717 9.82894 10.9187 9.76143 10.9271 9.66627C10.903 9.17784 10.7441 8.62519 10.4952 8.19934C10.4061 8.11051 10.3675 8.07466 10.3421 8.07043C10.3412 8.07019 10.3398 8.07043 10.3391 8.07043C10.3379 8.07043 10.3361 8.07043 10.3346 8.07043C10.3344 8.07043 10.3332 8.07043 10.333 8.07043C10.333 8.07043 10.3318 8.07043 10.3316 8.07043C10.3313 8.07043 10.3302 8.07043 10.3302 8.07043L10.3299 8.07046ZM18.0877 7.42378C17.9907 7.4191 17.8876 7.48193 17.8613 7.61434C17.8616 7.69239 17.8965 7.73551 17.8897 7.80627C17.8796 7.84683 17.8379 7.87359 17.7383 7.82575C17.7538 7.8114 17.6738 7.69827 17.6738 7.69827C17.596 7.65091 17.4922 7.70083 17.4247 7.74487C17.3876 7.81236 17.36 7.92819 17.4022 8.04627C17.5137 8.25231 17.8962 8.60407 18.0788 8.60739C18.0821 8.42151 18.1001 8.1745 18.1102 8.02078C18.1144 7.96287 18.128 7.89886 18.1838 7.88434C18.2393 7.86982 18.3357 7.94011 18.3366 7.87987C18.3265 7.76148 18.3029 7.58715 18.2363 7.50487C18.2021 7.45426 18.1459 7.42659 18.0877 7.42378ZM8.71581 7.38046C8.69138 7.37789 8.65953 7.38677 8.62274 7.4088C8.44816 7.50331 8.38065 7.78337 8.48916 7.94741C8.59089 8.09177 8.7514 8.0388 8.77274 8.0388C8.94381 8.06016 9.04581 7.71797 9.04581 7.71797C9.04581 7.71797 9.05097 7.62161 8.84774 7.80331C8.7622 7.81947 8.75073 7.78855 8.72916 7.74048C8.71132 7.65139 8.71533 7.56099 8.75632 7.4719C8.77509 7.41845 8.7563 7.38444 8.71581 7.38046ZM15.3455 7.31436C15.3099 7.32046 15.2755 7.35137 15.263 7.3999C15.2551 7.43151 15.2783 7.48287 15.2495 7.49878C15.233 7.51543 15.1688 7.50586 15.1714 7.41795C15.1714 7.38982 15.151 7.3591 15.1386 7.34129C15.1259 7.33311 15.1175 7.33078 15.095 7.33078C15.0676 7.33193 15.0681 7.33918 15.0531 7.36239C15.0467 7.38586 15.0381 7.40899 15.0381 7.43578C15.0346 7.46717 15.0235 7.47771 15.0006 7.48239C14.9748 7.48239 14.9795 7.48519 14.9586 7.47185C14.9462 7.45829 14.9314 7.45287 14.9314 7.4299C14.9314 7.40602 14.9253 7.36755 14.9181 7.35185C14.907 7.33733 14.8897 7.33143 14.87 7.32629C14.7622 7.32677 14.7559 7.4491 14.762 7.49578C14.754 7.50466 14.7484 7.7257 14.8955 7.78685C15.0929 7.8811 15.4646 7.83958 15.4489 7.52129C15.4489 7.49321 15.4412 7.39872 15.4386 7.37273C15.4184 7.32586 15.3812 7.30829 15.3455 7.31436ZM13.8936 6.60046C13.902 6.63795 13.9105 6.67596 13.9161 6.71436C13.9349 6.79757 13.9513 6.88006 13.9686 6.96185C13.8957 6.86151 13.8355 6.7807 13.8095 6.75185C13.6447 6.55618 13.8132 6.62321 13.8936 6.60046ZM20.1964 6.44436C20.1041 6.4411 20.0035 6.51118 20.0434 6.64829C20.0201 6.72329 20.2402 6.97733 20.2759 7.11629C20.308 7.21522 20.2271 7.53394 20.2939 7.56329C20.3553 7.59629 20.4418 7.34321 20.4739 7.10878C20.4917 6.98059 20.3966 6.53035 20.2353 6.45022C20.2231 6.44693 20.2095 6.44482 20.1964 6.44436ZM8.79638 6.14878C8.84234 6.1441 8.89814 6.18651 8.92531 6.24627C8.95437 6.31027 8.93983 6.37123 8.89226 6.38292C8.84491 6.39442 8.78349 6.35223 8.75445 6.28827C8.72539 6.2245 8.73993 6.16191 8.78726 6.15043C8.79031 6.1495 8.79338 6.14902 8.79638 6.14878ZM14.9417 5.93295C14.8407 5.9299 14.7287 5.99367 14.7723 6.12043C14.7469 6.18934 14.9897 6.42394 15.0289 6.55239C15.0992 6.7495 14.975 6.93771 15.0484 6.9649C15.1158 6.99538 15.2096 6.76126 15.2448 6.5449C15.2855 6.36982 15.1606 6.01143 14.9839 5.93741C14.9703 5.9341 14.9563 5.93321 14.9417 5.93295ZM7.05357 5.92829C7.02501 5.93201 6.99338 5.94821 6.95608 5.95685C6.83352 5.99578 6.71889 6.10167 6.75501 6.30795C6.89985 7.18779 6.99432 7.85926 7.13889 8.73936C7.16116 8.84249 7.07493 8.97821 6.96357 8.96436C6.77421 8.83618 6.7271 8.57669 6.40389 8.58773C6.17001 8.59054 5.90332 8.8453 5.87001 9.09046C5.83108 9.28522 5.81704 9.49637 5.87001 9.66629C6.03432 9.8641 6.2314 9.84303 6.40389 9.79829C6.54597 9.7399 6.6629 9.59998 6.71308 9.63329C6.71308 9.63353 6.71448 9.63329 6.71448 9.63329C6.71472 9.63353 6.71448 9.63468 6.71448 9.6349C6.74541 9.68902 6.71167 10.1467 6.0456 10.5002C5.63611 10.6842 5.31033 10.728 5.13504 10.3938C5.02627 10.185 5.14303 9.3895 4.8756 9.57327C4.0848 11.6116 6.72832 11.8963 7.0234 9.65739C7.0426 9.59407 7.10097 9.53086 7.14196 9.54627C7.16001 9.55399 7.17664 9.57843 7.1825 9.62434C7.12106 11.6517 5.13734 11.7904 4.80057 11.1527C4.71688 11.0025 4.6918 10.6678 4.68357 10.4674C4.66814 10.346 4.63766 10.2762 4.6025 10.2483C4.5221 10.188 4.41403 10.3455 4.39106 10.6188C4.35756 10.8389 4.36694 10.8991 4.36694 11.1108C4.47288 12.712 7.02571 12.0241 7.44055 10.7013C7.64587 10.0176 7.43628 9.50177 7.50499 9.43829C7.50549 9.43779 7.50734 9.43733 7.50806 9.43685C7.50849 9.43635 7.51039 9.4357 7.51087 9.43543C7.51178 9.43495 7.51322 9.43399 7.51387 9.43378C7.51622 9.43335 7.52023 9.43239 7.52306 9.43239C7.77638 9.70543 8.13194 9.46707 8.20999 9.37239C8.2433 9.32503 8.32694 9.29458 8.38555 9.35578C8.58312 9.49803 8.92951 9.43102 9.00194 9.18043C9.04363 8.93527 9.07903 8.68308 9.08748 8.42127C8.95855 8.46135 8.85475 8.49135 8.81304 8.53543C8.80296 8.54623 8.79568 8.55843 8.79336 8.57127C8.78232 8.6437 8.77152 8.71635 8.76055 8.78875C8.75911 8.79487 8.75724 8.80049 8.75443 8.80541C8.749 8.81431 8.73991 8.82252 8.73055 8.82792C8.68483 8.85276 8.60563 8.83848 8.60136 8.77239C8.54021 8.49391 8.28804 8.45763 8.13496 8.88934C8.03184 8.97279 7.84384 8.98915 7.82443 8.86378C7.84951 8.57434 7.7328 8.53543 7.49887 8.67185C7.42363 8.09835 7.34913 7.55059 7.27387 6.97685C7.37136 6.97402 7.46095 7.04482 7.54999 6.93351C7.45346 6.63351 7.24951 6.02319 7.13445 5.96602C7.13349 5.96551 7.13234 5.96482 7.13138 5.96436C7.12622 5.95829 7.12015 5.95241 7.11499 5.94795C7.11288 5.9461 7.10959 5.94351 7.1075 5.94185C7.10539 5.94043 7.1021 5.93859 7.10001 5.93739C7.09533 5.93482 7.08948 5.93292 7.08501 5.93151C7.07448 5.92851 7.0644 5.92707 7.0534 5.92851L7.05357 5.92829ZM5.03001 5.92546C4.97424 5.93177 4.92172 5.97725 4.8964 6.03797C4.88728 6.25195 4.88589 6.46596 4.91001 6.66331C5.0075 7.00947 5.03824 7.31388 5.08557 7.66831C5.09865 8.14313 4.8113 7.8738 4.82445 7.63831C4.89081 7.33267 4.87298 6.85147 4.81389 6.72939C4.76728 6.60751 4.71316 6.57727 4.59945 6.59743C4.50921 6.59179 4.27622 6.84591 4.21106 7.26631C4.21106 7.26631 4.1567 7.48219 4.13306 7.67439C4.10114 7.89163 3.95726 8.0454 3.85694 7.64439C3.77023 7.35305 3.71702 6.63492 3.57194 6.80297C3.53047 7.36361 3.48103 8.35008 3.95748 8.45131C4.53379 8.50687 4.21528 7.47727 4.42387 7.29048C4.46347 7.19813 4.53638 7.19647 4.54248 7.31299V8.18746C4.53732 8.47174 4.72435 8.55615 4.86943 8.61495C5.02063 8.60326 5.12071 8.60746 5.17996 8.75441C5.2036 9.25858 5.22828 9.76385 5.25192 10.268C5.25192 10.268 5.60136 10.3683 5.61804 9.41746C5.63464 8.85915 5.50668 8.39043 5.58192 8.28192C5.58472 8.17529 5.72136 8.16989 5.81604 8.22192C5.96652 8.3281 6.03336 8.45885 6.26748 8.40636C6.62371 8.30844 6.8382 8.13545 6.84355 7.86192C6.82272 7.602 6.79272 7.34182 6.67999 7.08192C6.69571 7.03457 6.61178 6.91174 6.62748 6.86443C6.69144 6.96475 6.78828 6.95633 6.81055 6.86443C6.74983 6.66475 6.65536 6.47328 6.50306 6.39053C6.37694 6.27943 6.1925 6.30288 6.12499 6.53443C6.09355 6.80117 6.22178 7.11756 6.41606 7.37587C6.45734 7.47684 6.51499 7.64491 6.48945 7.79587C6.38606 7.85491 6.28365 7.83031 6.19694 7.73887C6.19694 7.73887 5.91355 7.52676 5.91355 7.47943C5.98879 6.9978 5.92975 6.94248 5.88806 6.80887C5.85895 6.62443 5.7713 6.56587 5.70057 6.43999C5.62953 6.36475 5.53346 6.36475 5.4875 6.43999C5.3621 6.65727 5.42097 7.12347 5.51138 7.33251C5.57702 7.52446 5.6771 7.64446 5.62999 7.64446C5.59106 7.75296 5.50999 7.72767 5.45138 7.60251C5.36798 7.34355 5.35106 6.95751 5.35106 6.78339C5.32603 6.56775 5.29788 6.10695 5.15606 5.98999C5.11816 5.93837 5.07338 5.9203 5.03001 5.92546ZM15.7566 5.88444C15.7367 5.88653 15.7126 5.91701 15.6755 5.99554C15.5865 6.14129 15.526 6.39538 15.533 6.63303C15.7259 7.96803 15.785 9.13637 15.9111 10.4716C15.9214 10.6008 15.9024 10.7883 15.8166 10.863C15.4991 11.1944 15.0413 11.6034 14.543 11.7916C14.4894 11.8518 14.6764 12.1082 14.918 12.108C15.3223 12.0612 15.6776 11.8343 16.0072 11.2366C16.0953 11.0971 16.25 10.7988 16.2547 10.5675C16.2854 9.21159 16.1862 8.15739 15.983 7.17747C15.9701 7.08207 15.9788 6.96907 15.995 6.94051C16.0212 6.90934 16.1101 6.94123 16.1572 6.86407C16.2261 6.79356 15.9725 6.20859 15.8286 5.98356C15.7998 5.92709 15.7822 5.88209 15.7566 5.88444ZM8.8325 5.88159C8.76429 5.88511 8.70403 5.90458 8.6525 5.93107C8.52172 6.05643 8.49103 6.25731 8.59413 6.38247C8.69445 6.42982 8.79453 6.53086 8.7275 6.58659C8.44389 6.88942 7.70589 7.3957 7.66857 7.48803C7.66838 7.4887 7.66718 7.49038 7.66718 7.4911C7.66694 7.49175 7.66718 7.49345 7.66718 7.4941C7.66718 7.49436 7.66694 7.4953 7.66718 7.49554C7.66742 7.49626 7.66814 7.49789 7.66857 7.49861C7.66881 7.4988 7.66977 7.49976 7.67001 7.5C7.67025 7.50024 7.6714 7.5 7.67164 7.5C7.67189 7.50024 7.67282 7.50139 7.67308 7.50161C7.67352 7.50161 7.67424 7.50137 7.67469 7.50161C7.67469 7.50161 7.67589 7.50305 7.67608 7.50305C7.71357 7.52813 8.17557 7.52765 8.22664 7.50447C8.22688 7.50447 8.22782 7.50331 8.22808 7.50305H8.22969C8.22969 7.50305 8.22945 7.50161 8.22969 7.50161C8.38838 7.44305 9.14164 6.58195 9.14164 6.58195C9.1025 6.54869 9.06664 6.52404 9.0275 6.49054C8.98581 6.45444 8.99001 6.4188 9.0275 6.38249C9.21403 6.27396 9.15499 6.03514 9.0575 5.92661C8.97688 5.8903 8.90073 5.87811 8.8325 5.88159ZM6.18357 5.87859C6.148 5.88466 6.11349 5.91415 6.10106 5.96247C6.09314 5.99434 6.11467 6.04707 6.08606 6.063C6.06945 6.07963 6.00686 6.06843 6.00945 5.98049C6.00945 5.9526 5.98903 5.92332 5.97664 5.90549C5.96397 5.89728 5.95557 5.89495 5.93308 5.89495C5.90565 5.89615 5.90608 5.90343 5.89108 5.92656C5.88432 5.95003 5.87565 5.973 5.87565 5.99995C5.87234 6.03135 5.85969 6.04191 5.83672 6.04635C5.81097 6.04635 5.81704 6.04915 5.79616 6.03607C5.78373 6.02247 5.76924 6.01707 5.76924 5.99383C5.76924 5.96995 5.7629 5.93172 5.75568 5.91607C5.74488 5.90151 5.72752 5.89399 5.7076 5.88883C5.5998 5.88934 5.59207 6.01335 5.59816 6.05995C5.59017 6.06883 5.58616 6.28848 5.73316 6.34942C5.93073 6.44367 6.30081 6.40378 6.28509 6.08551C6.28509 6.05739 6.27897 5.96271 6.27616 5.93693C6.25605 5.89006 6.21873 5.87225 6.18316 5.87859H6.18357ZM16.505 5.84998C16.4884 5.85303 16.4638 5.87837 16.4181 5.93859C16.3051 6.30771 16.2655 6.60934 16.3086 6.83859C16.5985 8.35214 16.8957 9.73123 16.8486 11.1719C16.9859 11.1729 17.1451 10.8574 17.2131 10.545C17.2501 10.1149 17.1882 9.85287 17.177 9.59998C17.1659 9.34709 16.8908 7.29538 16.835 7.1041C16.7677 6.74225 17.1024 7.05653 17.0661 6.8461C16.9503 6.58078 16.6613 6.19452 16.5711 5.9641C16.5371 5.90225 16.5329 5.8453 16.505 5.84998ZM20.7439 5.82747C20.7242 5.82958 20.7001 5.86143 20.6631 5.93998C20.574 6.08578 20.5433 6.34685 20.5789 6.57747C20.7934 8.02731 20.9525 9.43099 20.9855 10.7161C20.967 10.8379 20.9616 10.9028 20.9045 11.0566C20.7779 11.2188 20.6384 11.422 20.507 11.52C20.3755 11.6179 20.0959 11.7114 20.0045 11.7841C19.7143 11.9517 19.7129 12.1446 19.9475 12.1516C20.3516 12.1045 20.8299 12.0714 21.1595 11.5741C21.2476 11.4347 21.3514 11.0568 21.3559 10.8255C21.3868 9.46968 21.3385 8.14404 21.1355 7.1641C21.1224 7.06853 21.0802 6.8491 21.0964 6.82054C21.1227 6.75353 21.2549 6.82733 21.3019 6.75C21.3711 6.67947 20.96 6.15305 20.8158 5.92805C20.7873 5.87151 20.7695 5.82514 20.7439 5.82747ZM4.09228 5.82559C4.00533 5.82303 3.90924 5.87715 3.94675 5.98167C3.92496 6.03867 4.11715 6.23127 4.15092 6.33701C4.18111 6.41249 4.12092 6.6553 4.18368 6.67755C4.24183 6.70263 4.32148 6.5095 4.35175 6.33115C4.3686 6.23343 4.356 5.89867 4.1284 5.83003C4.11664 5.82747 4.10469 5.82586 4.09228 5.82559ZM18.7098 5.81059C18.6854 5.80685 18.6587 5.81878 18.6287 5.86311C18.5715 5.91329 18.5099 6.00418 18.5117 6.12118C18.5255 6.32693 18.5623 6.53787 18.5762 6.74369C18.5811 6.77112 18.5863 6.79853 18.5912 6.8262C18.5692 6.79805 18.5497 6.77604 18.5387 6.76476C18.1374 6.34313 18.7231 6.69588 18.4623 6.37008C18.2415 6.12797 18.177 6.05088 17.9881 5.90508C17.8934 5.84388 17.8362 5.72695 17.8053 5.9262C17.7929 6.10104 17.78 6.30372 17.7917 6.4512C17.791 6.53323 17.8759 6.68743 17.9492 6.77813C18.2169 7.10695 18.4904 7.45711 18.7653 7.82227C18.823 8.56687 18.8384 9.24963 18.8973 9.99564C18.8888 10.3149 18.7908 10.7386 18.6978 10.7787C18.6978 10.7787 18.5555 10.8602 18.4606 10.7695C18.3917 10.7419 18.1156 10.3092 18.1156 10.3092C17.9745 10.1796 17.8803 10.2166 17.7797 10.3092C17.5025 10.5769 17.3771 11.0782 17.1887 11.4237C17.1401 11.5008 17.0033 11.5664 16.8512 11.4176C16.4649 10.8898 16.6908 10.1386 16.6428 10.3317C16.2987 10.7194 16.4511 11.3621 16.5287 11.5001C16.6421 11.7272 16.734 11.8725 16.9547 11.9848C17.1558 12.1327 17.3124 12.0403 17.3987 11.9367C17.6012 11.727 17.6037 11.1907 17.6987 11.0848C17.7654 10.8898 17.9323 10.9233 18.0137 11.0098C18.0926 11.1233 18.1857 11.1971 18.3017 11.2587C18.4904 11.4251 18.7156 11.4553 18.9378 11.3037C19.0894 11.2186 19.1879 11.108 19.2767 10.8898C19.3721 10.6348 19.325 9.29883 19.3037 8.55564C19.4462 8.75647 19.587 8.96155 19.7267 9.1692C19.7881 9.82147 19.816 10.4639 19.7956 11.0801C19.7813 11.2026 20.2231 10.7145 20.2203 10.4831C20.2182 10.2809 20.2205 10.0974 20.2203 9.92669C20.4345 10.2689 20.6422 10.617 20.8381 10.9692C20.9597 10.9048 20.918 10.2166 20.8411 10.1217C20.6358 9.77698 20.3729 9.40479 20.1692 9.11671C20.1289 8.75299 20.074 8.32407 20.0492 8.19259C20.0103 7.98775 19.9714 7.67979 19.9128 7.43671C19.8966 7.34155 19.8479 7.03831 19.8631 7.00923C19.8872 6.94131 19.9777 7.01134 20.0222 6.93262C20.089 6.85997 19.7909 6.08794 19.6397 5.86762C19.5853 5.76893 19.4869 5.80315 19.3653 5.96374C19.2523 6.06917 19.2935 6.31035 19.3367 6.53957C19.4487 7.12385 19.5485 7.71915 19.6278 8.31262C19.4813 8.09513 19.3027 7.83166 19.1267 7.57762C19.122 7.55326 19.1042 7.4635 19.1042 7.46208C19.1042 7.45174 19.08 6.98417 19.0592 6.87262C19.0554 6.82738 19.0446 6.81449 19.0922 6.82011C19.1424 6.86254 19.1492 6.86463 19.1806 6.87871C19.2314 6.88807 19.2757 6.80206 19.2453 6.72259C19.0882 6.43313 18.9312 6.14227 18.7742 5.85259C18.7553 5.83402 18.7342 5.81436 18.7098 5.81059ZM13.0456 5.75201C12.9955 5.75667 12.9556 5.78602 12.9406 5.86006C12.9207 6.03444 12.931 6.1291 12.9603 6.27418C12.9826 6.37078 13.1234 6.53271 13.1928 6.62669C13.5238 7.07153 13.8423 7.51853 14.1498 7.9812C14.1981 8.32455 14.2334 8.66064 14.2562 8.99508C14.3061 9.72869 14.3213 10.642 14.2759 11.4145C14.4132 11.4202 14.6335 11.1926 14.7109 10.8598C14.761 10.399 14.6928 9.45915 14.6884 9.18727C14.6851 9.07428 14.678 8.93955 14.6703 8.79871C15.028 9.38323 15.3751 10.0027 15.7156 10.6826C15.8399 10.6236 15.8124 9.92439 15.7398 9.8262C15.467 9.23928 15.0903 8.65992 14.9703 8.43703C14.9269 8.35661 14.7793 8.13211 14.6042 7.87313C14.5721 7.50355 14.5369 7.19062 14.5142 7.0962C14.458 6.70548 14.6747 7.14024 14.6447 6.91313C14.5744 6.52289 14.3591 6.25781 14.1047 5.90062C14.0227 5.78436 14.0243 5.76072 13.8978 5.92896C13.8221 6.1008 13.823 6.24353 13.8453 6.37757C13.812 6.32926 13.7708 6.27187 13.7117 6.20062C13.4921 6.01217 13.4785 6.00187 13.2962 5.84811C13.2387 5.80733 13.1293 5.74452 13.0458 5.75201H13.0456ZM11.1348 5.71755C11.0861 5.72175 11.0319 5.7787 10.9878 5.88867C10.9499 5.97209 10.9037 6.40918 10.9112 6.40918C10.881 6.53926 11.0471 6.59436 11.1228 6.42725C11.2361 6.12072 11.2367 5.99014 11.2442 5.86006C11.2266 5.76118 11.1835 5.71337 11.1348 5.71755ZM11.6523 5.67725C11.6209 5.68145 11.5824 5.72175 11.5292 5.81837C11.4911 5.91936 11.3262 6.07265 11.4451 6.38837C11.5424 6.58853 11.5822 6.9138 11.5382 7.27637C11.4709 7.37926 11.4554 7.4149 11.3673 7.51781C11.2431 7.6512 11.1088 7.61719 11.0057 7.56727C10.9093 7.50235 10.8336 7.46904 10.7898 7.26281C10.7978 6.93396 10.8167 6.39612 10.7567 6.28169C10.6682 6.105 10.5221 6.16829 10.4598 6.22169C10.1598 6.49596 10.0117 6.9588 9.92119 7.32725C9.83803 7.59562 9.74942 7.51803 9.68731 7.40976C9.5357 7.26773 9.52512 6.15773 9.34231 6.3403C9.04934 7.17749 9.51036 8.09436 9.8298 8.0053C10.0602 8.10072 10.2064 7.66217 10.3007 7.18169C10.3653 7.04695 10.4146 7.03145 10.4476 7.10088C10.4392 7.73952 10.4935 7.88203 10.6576 8.07588C11.0239 8.35831 11.327 8.11169 11.3507 8.08781L11.6357 7.80281C11.6992 7.73604 11.7831 7.73203 11.8726 7.79088C11.9598 7.87008 11.9485 8.00645 12.1351 8.10139C12.2921 8.1642 12.6275 8.11663 12.7051 7.98139C12.8099 7.8019 12.8352 7.74024 12.8837 7.67227C12.9585 7.57289 13.0862 7.61695 13.0862 7.64839C13.0743 7.70371 12.9993 7.75855 13.0501 7.85839C13.1389 7.92492 13.1598 7.88203 13.2123 7.86727C13.3982 7.77847 13.5376 7.37532 13.5376 7.37532C13.5461 7.22484 13.4605 7.23631 13.4057 7.26727C13.3344 7.31088 13.33 7.32564 13.2587 7.3692C13.1678 7.38281 12.9918 7.44281 12.9048 7.30781C12.8158 7.14562 12.8153 6.91944 12.7473 6.75588C12.7473 6.74388 12.6283 6.49853 12.7382 6.48281C12.7937 6.49313 12.913 6.5238 12.9318 6.4242C12.9899 6.32719 12.8062 6.05177 12.6812 5.91281C12.5727 5.79372 12.4229 5.7792 12.2777 5.90088C12.1762 5.99439 12.1912 6.09869 12.1712 6.19781C12.1455 6.31145 12.1504 6.45233 12.2657 6.60281C12.3672 6.80297 12.5516 7.0596 12.4907 7.42169C12.4907 7.42169 12.3836 7.5942 12.1952 7.57169C12.1166 7.5546 11.9889 7.52062 11.9207 7.01837C11.8694 6.63795 11.9336 6.10522 11.7723 5.85586C11.7357 5.76159 11.7045 5.67022 11.6523 5.67725ZM10.0173 5.66837C9.99849 5.66765 9.97087 5.67821 9.93172 5.70137C9.84381 5.76022 9.66993 5.94137 9.66477 6.14976C9.65937 6.26741 9.63713 6.26695 9.71424 6.34169C9.76977 6.42211 9.82533 6.41412 9.93782 6.3553C10.0023 6.30773 10.0241 6.27749 10.0457 6.19781C10.0723 6.0642 9.90501 6.26112 9.88365 6.11227C9.84638 5.9742 9.95308 5.91751 10.0548 5.78388C10.0571 5.72086 10.0581 5.6695 10.0173 5.66837Z" fill="white"/>
</g>
</svg>
