<svg width="25" height="24" viewBox="0 0 25 24" fill="none" xmlns="http://www.w3.org/2000/svg">
<g clip-path="url(#clip0_342_1002)">
<path d="M12.5054 0C12.502 0 12.499 0 12.4956 0V23.9996C12.499 23.9996 12.502 23.9993 12.5054 23.9993C19.1284 23.9942 24.4956 18.6238 24.4956 12.0001C24.4956 5.37548 19.1284 0.005472 12.5054 0Z" fill="#CD2029"/>
<path d="M12.4959 0C11.5425 0 10.6162 0.114456 9.72696 0.324571C10.7583 0.729854 12.3676 1.33861 12.5058 1.39075V1.39774L8.92876 2.66968L12.5058 4.06114V4.06813L8.92876 5.33966L12.5058 6.73077V6.73776L8.92876 8.01005L12.5058 9.40115V9.40815L8.92876 10.6801L12.5058 12.0712V12.0786L8.92876 13.3501L12.5058 14.7416V14.7486L8.92876 16.0205L12.5058 17.4116V17.4186L8.92876 18.6905L12.5058 20.0024V20.0094L8.92871 21.3611L12.5057 22.7518V22.7588C12.3803 22.801 10.9686 23.2779 9.85541 23.7046C10.7054 23.896 11.5883 24 12.4961 24C19.1234 23.9996 19.1234 0 12.4959 0Z" fill="#DA1E34"/>
<path d="M12.5139 22.7355L8.93685 21.3448L12.5139 19.9936V19.9862L8.93685 18.6743L12.5139 17.4028V17.3954L8.93685 16.0045L12.5139 14.733V14.7256L8.93685 13.3341L12.5139 12.0626V12.0552L8.93685 10.6645L12.5139 9.39256V9.38516L8.93685 7.99405L12.5139 6.72212V6.71472L8.93685 5.32382L12.5139 4.05264V4.04524L8.93685 2.65378L12.5139 1.38225V1.37486C12.3758 1.32277 10.7664 0.714365 9.73505 0.309082C4.44353 1.55954 0.504395 6.30999 0.504395 11.9841C0.504395 17.7035 4.50737 22.4854 9.86355 23.6887C10.9767 23.2617 12.3885 22.7849 12.5139 22.7429V22.7355Z" fill="#EFEFEF"/>
</g>
<defs>
<clipPath id="clip0_342_1002">
<rect width="24" height="24" fill="white" transform="translate(0.5)"/>
</clipPath>
</defs>
</svg>
