<svg width="24" height="24" viewBox="0 0 24 24" fill="none" xmlns="http://www.w3.org/2000/svg">
<g clip-path="url(#clip0_349_5920)">
<path d="M12 24C18.6274 24 24 18.6274 24 12C24 5.37258 18.6274 0 12 0C5.37258 0 0 5.37258 0 12C0 18.6274 5.37258 24 12 24Z" fill="#0052B4"/>
<path d="M12.0003 4.69568L12.3888 5.89141H13.646L12.6289 6.6304L13.0174 7.82613L12.0003 7.0871L10.9831 7.82613L11.3716 6.6304L10.3545 5.89141H11.6117L12.0003 4.69568Z" fill="#FFDA44"/>
<path d="M6.83523 6.83503L7.95554 7.40578L8.84453 6.51685L8.64779 7.75856L9.76806 8.32936L8.52629 8.52605L8.32961 9.76786L7.75881 8.6476L6.51709 8.84433L7.40607 7.95535L6.83523 6.83503Z" fill="#FFDA44"/>
<path d="M4.6958 12L5.89153 11.6115V10.3542L6.63047 11.3714L7.82625 10.9829L7.08718 12L7.82625 13.0172L6.63047 12.6287L5.89153 13.6458V12.3886L4.6958 12Z" fill="#FFDA44"/>
<path d="M6.83523 17.165L7.40603 16.0447L6.51709 15.1557L7.75886 15.3525L8.32956 14.2322L8.52629 15.474L9.76801 15.6707L8.64789 16.2415L8.84453 17.4832L7.95554 16.5942L6.83523 17.165Z" fill="#FFDA44"/>
<path d="M12.0003 19.3044L11.6117 18.1086H10.3545L11.3717 17.3697L10.9831 16.174L12.0003 16.9129L13.0174 16.174L12.6289 17.3697L13.646 18.1086H12.3888L12.0003 19.3044Z" fill="#FFDA44"/>
<path d="M17.1652 17.165L16.0449 16.5943L15.1559 17.4833L15.3526 16.2414L14.2324 15.6707L15.4741 15.474L15.6708 14.2322L16.2416 15.3525L17.4833 15.1557L16.5943 16.0448L17.1652 17.165Z" fill="#FFDA44"/>
<path d="M19.3047 12L18.1089 12.3886V13.6458L17.37 12.6286L16.1743 13.0172L16.9133 12L16.1743 10.9829L17.37 11.3714L18.1089 10.3542V11.6115L19.3047 12Z" fill="#FFDA44"/>
<path d="M17.1652 6.83505L16.5944 7.95536L17.4833 8.84434L16.2415 8.64756L15.6708 9.76783L15.4741 8.52606L14.2324 8.32933L15.3526 7.75858L15.1559 6.51691L16.0449 7.40584L17.1652 6.83505Z" fill="#FFDA44"/>
</g>
<defs>
<clipPath id="clip0_349_5920">
<rect width="24" height="24" fill="white"/>
</clipPath>
</defs>
</svg>
