<svg width="28" height="28" viewBox="0 0 28 28" fill="none" xmlns="http://www.w3.org/2000/svg">
<path d="M13.5321 14.2297C16.3569 14.2297 18.6469 11.9397 18.6469 9.11485C18.6469 6.29 16.3569 4 13.5321 4C10.7072 4 8.41724 6.29 8.41724 9.11485C8.41724 11.9397 10.7072 14.2297 13.5321 14.2297Z" fill="#9CA3AF"/>
<path fill-rule="evenodd" clip-rule="evenodd" d="M19.1121 15.8051C17.2838 15.8051 15.7996 17.2894 15.7996 19.1177C15.7996 20.946 17.2838 22.4312 19.1121 22.4312C20.9405 22.4312 22.4256 20.946 22.4256 19.1177C22.4256 17.2894 20.9405 15.8051 19.1121 15.8051ZM19.1121 17.2001C20.1704 17.2001 21.0307 18.0594 21.0307 19.1177C21.0307 20.176 20.1704 21.0362 19.1121 21.0362C18.0538 21.0362 17.1936 20.176 17.1936 19.1177C17.1936 18.0594 18.0538 17.2001 19.1121 17.2001Z" fill="#9CA3AF"/>
<path fill-rule="evenodd" clip-rule="evenodd" d="M19.8098 16.5016V14.9328C19.8098 14.5478 19.4973 14.2353 19.1123 14.2353C18.7273 14.2353 18.4148 14.5478 18.4148 14.9328V16.5026C18.4148 16.8866 18.7273 17.2 19.1123 17.2C19.4973 17.1991 19.8098 16.8866 19.8098 16.5016Z" fill="#9CA3AF"/>
<path fill-rule="evenodd" clip-rule="evenodd" d="M21.4545 17.7618L22.564 16.6514C22.8365 16.3798 22.8365 15.9372 22.564 15.6656C22.2924 15.3931 21.8498 15.3931 21.5782 15.6656L20.4678 16.7751C20.1963 17.0475 20.1963 17.4893 20.4678 17.7618C20.7403 18.0333 21.182 18.0333 21.4545 17.7618Z" fill="#9CA3AF"/>
<path fill-rule="evenodd" clip-rule="evenodd" d="M21.7273 19.8151H23.2971C23.6821 19.8151 23.9946 19.5027 23.9946 19.1176C23.9946 18.7326 23.6821 18.4202 23.2971 18.4202H21.7273C21.3432 18.4202 21.0308 18.7326 21.0308 19.1176C21.0298 19.5027 21.3432 19.8151 21.7273 19.8151Z" fill="#9CA3AF"/>
<path fill-rule="evenodd" clip-rule="evenodd" d="M20.4678 21.4603L21.5782 22.5697C21.8498 22.8422 22.2924 22.8422 22.564 22.5697C22.8365 22.2982 22.8365 21.8555 22.564 21.5839L21.4545 20.4736C21.182 20.202 20.7403 20.202 20.4678 20.4736C20.1963 20.746 20.1963 21.1878 20.4678 21.4603Z" fill="#9CA3AF"/>
<path fill-rule="evenodd" clip-rule="evenodd" d="M18.4148 21.7327V23.3025C18.4148 23.6875 18.7273 24 19.1123 24C19.4973 24 19.8098 23.6875 19.8098 23.3025V21.7327C19.8098 21.3486 19.4973 21.0361 19.1123 21.0352C18.7273 21.0352 18.4148 21.3486 18.4148 21.7327Z" fill="#9CA3AF"/>
<path fill-rule="evenodd" clip-rule="evenodd" d="M16.7694 20.4736L15.6599 21.5839C15.3874 21.8555 15.3874 22.2982 15.6599 22.5697C15.9315 22.8422 16.3741 22.8422 16.6457 22.5697L17.7561 21.4603C18.0276 21.1878 18.0276 20.746 17.7561 20.4736C17.4836 20.202 17.0419 20.202 16.7694 20.4736Z" fill="#9CA3AF"/>
<path fill-rule="evenodd" clip-rule="evenodd" d="M16.4961 18.4202H14.9272C14.5422 18.4202 14.2297 18.7326 14.2297 19.1176C14.2297 19.5027 14.5422 19.8151 14.9272 19.8151H16.4961C16.8811 19.8151 17.1945 19.5027 17.1936 19.1176C17.1936 18.7326 16.8811 18.4202 16.4961 18.4202Z" fill="#9CA3AF"/>
<path fill-rule="evenodd" clip-rule="evenodd" d="M17.7561 16.7751L16.6457 15.6656C16.3741 15.3931 15.9315 15.3931 15.6599 15.6656C15.3874 15.9372 15.3874 16.3798 15.6599 16.6514L16.7694 17.7618C17.0419 18.0333 17.4836 18.0333 17.7561 17.7618C18.0276 17.4893 18.0276 17.0475 17.7561 16.7751Z" fill="#9CA3AF"/>
<path fill-rule="evenodd" clip-rule="evenodd" d="M14.8677 23.0756C14.3711 22.4376 14.4157 21.5123 15.0025 20.9264L15.1829 20.7451H14.9272C14.0288 20.7451 13.2997 20.016 13.2997 19.1176C13.2997 18.2193 14.0288 17.4902 14.9272 17.4902H15.1829L15.0025 17.3088C14.3924 16.6997 14.3683 15.7241 14.93 15.0852C14.4743 15.0499 14.0074 15.0313 13.5322 15.0313C10.4429 15.0313 7.7078 15.8041 6.00967 16.9619C4.71422 17.8454 4 18.9679 4 20.1462V21.4946C4 21.914 4.16647 22.3167 4.46313 22.6125C4.75979 22.9091 5.16154 23.0756 5.58095 23.0756H14.8677Z" fill="#9CA3AF"/>
</svg>
