<svg width="20" height="20" viewBox="0 0 20 20" fill="none" xmlns="http://www.w3.org/2000/svg">
<path d="M9.53469 10.2325C12.3603 10.2325 14.6509 7.94191 14.6509 5.11627C14.6509 2.29063 12.3603 0 9.53469 0C6.70907 0 4.41846 2.29063 4.41846 5.11627C4.41846 7.94191 6.70907 10.2325 9.53469 10.2325Z" fill="#9CA3AF"/>
<path fill-rule="evenodd" clip-rule="evenodd" d="M15.1162 11.8084C13.2874 11.8084 11.8027 13.2931 11.8027 15.1219C11.8027 16.9507 13.2874 18.4363 15.1162 18.4363C16.945 18.4363 18.4306 16.9507 18.4306 15.1219C18.4306 13.2931 16.945 11.8084 15.1162 11.8084ZM15.1162 13.2038C16.1748 13.2038 17.0352 14.0633 17.0352 15.1219C17.0352 16.1805 16.1748 17.041 15.1162 17.041C14.0576 17.041 13.1971 16.1805 13.1971 15.1219C13.1971 14.0633 14.0576 13.2038 15.1162 13.2038Z" fill="#9CA3AF"/>
<path fill-rule="evenodd" clip-rule="evenodd" d="M15.8137 12.5045V10.9356C15.8137 10.5506 15.5012 10.2382 15.1162 10.2382C14.7312 10.2382 14.4187 10.5506 14.4187 10.9356V12.5054C14.4187 12.8895 14.7312 13.2029 15.1162 13.2029C15.5012 13.202 15.8137 12.8895 15.8137 12.5045Z" fill="#9CA3AF"/>
<path fill-rule="evenodd" clip-rule="evenodd" d="M17.4589 13.7649L18.5684 12.6545C18.8409 12.383 18.8409 11.9403 18.5684 11.6688C18.2968 11.3963 17.8542 11.3963 17.5826 11.6688L16.4722 12.7782C16.2007 13.0507 16.2007 13.4925 16.4722 13.7649C16.7447 14.0365 17.1864 14.0365 17.4589 13.7649Z" fill="#9CA3AF"/>
<path fill-rule="evenodd" clip-rule="evenodd" d="M17.732 15.8192H19.3017C19.6868 15.8192 19.9992 15.5067 19.9992 15.1217C19.9992 14.7367 19.6868 14.4242 19.3017 14.4242H17.732C17.3479 14.4242 17.0354 14.7367 17.0354 15.1217C17.0345 15.5067 17.3479 15.8192 17.732 15.8192Z" fill="#9CA3AF"/>
<path fill-rule="evenodd" clip-rule="evenodd" d="M16.4722 17.4648L17.5826 18.5742C17.8542 18.8467 18.2968 18.8467 18.5684 18.5742C18.8409 18.3027 18.8409 17.86 18.5684 17.5885L17.4589 16.4781C17.1864 16.2065 16.7447 16.2065 16.4722 16.4781C16.2007 16.7506 16.2007 17.1923 16.4722 17.4648Z" fill="#9CA3AF"/>
<path fill-rule="evenodd" clip-rule="evenodd" d="M14.4187 17.7374V19.3072C14.4187 19.6922 14.7312 20.0047 15.1162 20.0047C15.5012 20.0047 15.8137 19.6922 15.8137 19.3072V17.7374C15.8137 17.3533 15.5012 17.0408 15.1162 17.0399C14.7312 17.0399 14.4187 17.3533 14.4187 17.7374Z" fill="#9CA3AF"/>
<path fill-rule="evenodd" clip-rule="evenodd" d="M12.7726 16.4781L11.6631 17.5885C11.3906 17.86 11.3906 18.3027 11.6631 18.5742C11.9347 18.8467 12.3773 18.8467 12.6489 18.5742L13.7593 17.4648C14.0308 17.1923 14.0308 16.7506 13.7593 16.4781C13.4868 16.2065 13.045 16.2065 12.7726 16.4781Z" fill="#9CA3AF"/>
<path fill-rule="evenodd" clip-rule="evenodd" d="M12.4988 14.4242H10.9299C10.5449 14.4242 10.2324 14.7367 10.2324 15.1217C10.2324 15.5067 10.5449 15.8192 10.9299 15.8192H12.4988C12.8838 15.8192 13.1972 15.5067 13.1962 15.1217C13.1962 14.7367 12.8838 14.4242 12.4988 14.4242Z" fill="#9CA3AF"/>
<path fill-rule="evenodd" clip-rule="evenodd" d="M13.7593 12.7782L12.6489 11.6688C12.3773 11.3963 11.9347 11.3963 11.6631 11.6688C11.3906 11.9403 11.3906 12.383 11.6631 12.6545L12.7726 13.7649C13.045 14.0365 13.4868 14.0365 13.7593 13.7649C14.0308 13.4925 14.0308 13.0507 13.7593 12.7782Z" fill="#9CA3AF"/>
<path fill-rule="evenodd" clip-rule="evenodd" d="M10.8706 19.0809C10.3739 18.4427 10.4185 17.5171 11.0055 16.9311L11.186 16.7497H10.9301C10.0315 16.7497 9.30225 16.0204 9.30225 15.1218C9.30225 14.2232 10.0315 13.4939 10.9301 13.4939H11.186L11.0055 13.3125C10.3953 12.7032 10.3711 11.7274 10.9329 11.0883C10.4771 11.053 10.0101 11.0344 9.5348 11.0344C6.4446 11.0344 3.70881 11.8074 2.01022 12.9655C0.714413 13.8492 0 14.972 0 16.1506V17.4995C0 17.919 0.16651 18.3218 0.463252 18.6176C0.759994 18.9144 1.16185 19.0809 1.58138 19.0809H10.8706Z" fill="#9CA3AF"/>
</svg>
