<svg width="28" height="28" viewBox="0 0 28 28" fill="none" xmlns="http://www.w3.org/2000/svg">
<path fill-rule="evenodd" clip-rule="evenodd" d="M4 13.1112C4 8.07922 8.07922 4 13.1112 4C18.1431 4 22.2223 8.07922 22.2223 13.1112C22.2223 15.2817 21.4633 17.2749 20.1963 18.84L23.7191 22.3628C24.0936 22.7373 24.0936 23.3446 23.7191 23.7191C23.3446 24.0936 22.7373 24.0936 22.3628 23.7191L18.84 20.1963C17.2749 21.4633 15.2817 22.2223 13.1112 22.2223C8.07922 22.2223 4 18.1431 4 13.1112ZM13.1112 5.91814C9.13858 5.91814 5.91814 9.13858 5.91814 13.1112C5.91814 17.0837 9.13858 20.3042 13.1112 20.3042C17.0837 20.3042 20.3042 17.0837 20.3042 13.1112C20.3042 9.13858 17.0837 5.91814 13.1112 5.91814ZM9.72034 9.24076C10.5871 8.37405 11.7872 7.83628 13.1112 7.83628C14.4351 7.83628 15.6352 8.37404 16.502 9.24078C16.8765 9.61532 16.8765 10.2226 16.502 10.5971C16.1274 10.9716 15.5202 10.9716 15.1456 10.5971C14.6239 10.0754 13.9059 9.75442 13.1112 9.75442C12.3164 9.75442 11.5984 10.0754 11.0766 10.5971C10.7021 10.9717 10.0948 10.9716 9.72029 10.5971C9.34576 10.2225 9.34578 9.61528 9.72034 9.24076Z" fill="#9CA3AF"/>
</svg>
