<svg width="50" height="50" viewBox="0 0 50 50" fill="none" xmlns="http://www.w3.org/2000/svg">
<circle cx="25" cy="25" r="24.5" fill="white" stroke="#FEC901"/>
<path d="M25 29C26.6569 29 28 27.6569 28 26C28 24.3431 26.6569 23 25 23C23.3431 23 22 24.3431 22 26C22 27.6569 23.3431 29 25 29Z" stroke="#3B3B41" stroke-width="1.5"/>
<path d="M22.778 34H27.222C30.343 34 31.904 34 33.025 33.265C33.5088 32.9481 33.9254 32.539 34.251 32.061C35 30.961 35 29.428 35 26.364C35 23.3 35 21.767 34.251 20.667C33.9254 20.189 33.5088 19.7799 33.025 19.463C32.305 18.99 31.403 18.821 30.022 18.761C29.363 18.761 28.796 18.271 28.667 17.636C28.5684 17.1709 28.3123 16.754 27.9418 16.456C27.5714 16.1579 27.1095 15.9968 26.634 16H23.366C22.378 16 21.527 16.685 21.333 17.636C21.204 18.271 20.637 18.761 19.978 18.761C18.598 18.821 17.696 18.991 16.975 19.463C16.4915 19.78 16.0753 20.1891 15.75 20.667C15 21.767 15 23.299 15 26.364C15 29.429 15 30.96 15.749 32.061C16.073 32.537 16.489 32.946 16.975 33.265C18.096 34 19.657 34 22.778 34Z" stroke="#3B3B41" stroke-width="1.5"/>
<path d="M32 23H31" stroke="#3B3B41" stroke-width="1.5" stroke-linecap="round"/>
</svg>
