<svg width="16" height="16" viewBox="0 0 16 16" fill="none" xmlns="http://www.w3.org/2000/svg">
<path d="M10.0002 4.33334C9.63216 4.33334 9.3335 4.03468 9.3335 3.66668V2.66668H6.66683V3.66668C6.66683 4.03468 6.36816 4.33334 6.00016 4.33334C5.63216 4.33334 5.3335 4.03468 5.3335 3.66668V2.66668C5.3335 1.93134 5.9315 1.33334 6.66683 1.33334H9.3335C10.0688 1.33334 10.6668 1.93134 10.6668 2.66668V3.66668C10.6668 4.03468 10.3682 4.33334 10.0002 4.33334Z" fill="#6B7280"/>
<path d="M8.47333 10.2533C8.35333 10.3 8.18 10.3333 8 10.3333C7.82 10.3333 7.64667 10.3 7.48667 10.24L0 7.74667V12.8333C0 13.8467 0.82 14.6667 1.83333 14.6667H14.1667C15.18 14.6667 16 13.8467 16 12.8333V7.74667L8.47333 10.2533Z" fill="#6B7280"/>
<path d="M16 5.16668V6.69334L8.16 9.30668C8.10667 9.32668 8.05333 9.33334 8 9.33334C7.94667 9.33334 7.89333 9.32668 7.84 9.30668L0 6.69334V5.16668C0 4.15334 0.82 3.33334 1.83333 3.33334H14.1667C15.18 3.33334 16 4.15334 16 5.16668Z" fill="#6B7280"/>
</svg>
