<svg width="18" height="22" viewBox="0 0 18 22" fill="none" xmlns="http://www.w3.org/2000/svg">
<path d="M13.5 15.5C13.5 15.6989 13.579 15.8897 13.7197 16.0303C13.8603 16.171 14.0511 16.25 14.25 16.25H18V14.75H14.25C14.0511 14.75 13.8603 14.829 13.7197 14.9697C13.579 15.1103 13.5 15.3011 13.5 15.5Z" fill="#6B7280"/>
<path d="M16.5 9.6425V8.75C16.5 8.15326 16.2629 7.58097 15.841 7.15901C15.419 6.73705 14.8467 6.5 14.25 6.5H12.18L10.68 8H14.25C14.4489 8 14.6397 8.07902 14.7803 8.21967C14.921 8.36032 15 8.55109 15 8.75V9.5H2.25C2.05109 9.5 1.86032 9.42098 1.71967 9.28033C1.57902 9.13968 1.5 8.94891 1.5 8.75C1.5 8.55109 1.57902 8.36032 1.71967 8.21967C1.86032 8.07902 2.05109 8 2.25 8H5.82L4.32 6.5H2.25C1.65326 6.5 1.08097 6.73705 0.65901 7.15901C0.237053 7.58097 0 8.15326 0 8.75V19.25C0 19.8467 0.237053 20.419 0.65901 20.841C1.08097 21.2629 1.65326 21.5 2.25 21.5H15.75C16.3467 21.5 16.919 21.2629 17.341 20.841C17.7629 20.419 18 19.8467 18 19.25V17.75H14.25C13.6533 17.75 13.081 17.5129 12.659 17.091C12.2371 16.669 12 16.0967 12 15.5C12 14.9033 12.2371 14.331 12.659 13.909C13.081 13.4871 13.6533 13.25 14.25 13.25H18V11.75C17.9972 11.2871 17.8516 10.8363 17.5831 10.4591C17.3147 10.082 16.9365 9.7968 16.5 9.6425Z" fill="#6B7280"/>
<path d="M7.7176 7.7825C7.78733 7.8528 7.87028 7.90859 7.96167 7.94667C8.05307 7.98475 8.1511 8.00435 8.2501 8.00435C8.34911 8.00435 8.44714 7.98475 8.53854 7.94667C8.62993 7.90859 8.71288 7.8528 8.7826 7.7825L11.0326 5.5325C11.1367 5.42703 11.2072 5.2931 11.2352 5.14761C11.2632 5.00212 11.2475 4.85158 11.1901 4.715C11.1338 4.57804 11.0383 4.46079 10.9155 4.37804C10.7927 4.29529 10.6482 4.25074 10.5001 4.25H9.0001V1.25C9.0001 1.05109 8.92109 0.860322 8.78043 0.71967C8.63978 0.579018 8.44902 0.5 8.2501 0.5C8.05119 0.5 7.86043 0.579018 7.71977 0.71967C7.57912 0.860322 7.5001 1.05109 7.5001 1.25V4.25H6.0001C5.85204 4.25074 5.7075 4.29529 5.58471 4.37804C5.46192 4.46079 5.36637 4.57804 5.3101 4.715C5.25267 4.85158 5.23698 5.00212 5.26501 5.14761C5.29304 5.2931 5.36354 5.42703 5.4676 5.5325L7.7176 7.7825Z" fill="#6B7280"/>
</svg>
