<svg width="25" height="24" viewBox="0 0 25 24" fill="none" xmlns="http://www.w3.org/2000/svg">
<path d="M12.3554 5.43759C13.2559 4.53708 13.2559 3.07706 12.3554 2.17655C11.4549 1.27604 9.9949 1.27604 9.09439 2.17655C8.19388 3.07706 8.19388 4.53708 9.09439 5.43759C9.9949 6.3381 11.4549 6.3381 12.3554 5.43759Z" fill="#6B7280"/>
<path d="M20.6824 1.5H14.1499C13.9399 1.5 13.7749 1.66875 13.7749 1.875C13.7749 2.08125 13.9399 2.25 14.1499 2.25H16.4486V3.98625H17.7236C17.9299 3.98625 18.0986 4.15125 18.0986 4.36125C18.0986 4.5675 17.9299 4.73625 17.7236 4.73625H16.4486V6.16875H18.7549C18.9611 6.16875 19.1299 6.33749 19.1299 6.54375C19.1299 6.75 18.9611 6.91875 18.7549 6.91875H16.4486V8.35124H17.7236C17.9299 8.35124 18.0986 8.51999 18.0986 8.72624C18.0986 8.9325 17.9299 9.10124 17.7236 9.10124H16.4486V10.5337H18.7549C18.9611 10.5337 19.1299 10.7025 19.1299 10.9087C19.1299 11.115 18.9611 11.2837 18.7549 11.2837H16.4486V12.7162H17.7236C17.9299 12.7162 18.0986 12.885 18.0986 13.0912C18.0986 13.2975 17.9299 13.4662 17.7236 13.4662H16.4486V14.8987H18.7549C18.9611 14.8987 19.1299 15.0675 19.1299 15.2737C19.1299 15.48 18.9611 15.6487 18.7549 15.6487H16.4486V17.0812H17.7236C17.9299 17.0812 18.0986 17.25 18.0986 17.4562C18.0986 17.6625 17.9299 17.8312 17.7236 17.8312H16.4486V19.2638H18.7549C18.9611 19.2638 19.1299 19.4325 19.1299 19.6388C19.1299 19.8488 18.9611 20.0138 18.7549 20.0138H16.4486V21.75H13.0811C13.1974 21.54 13.2649 21.3 13.2649 21.045V14.9362C13.4374 15.0188 13.6324 15.0675 13.8349 15.0675C14.5624 15.0675 15.1511 14.475 15.1511 13.7475V9.34125C15.1511 8.02875 14.0861 6.96376 12.7736 6.96376H8.68239C7.36989 6.96376 6.30113 8.02875 6.30113 9.34125V13.7475C6.30113 14.475 6.89363 15.0675 7.62113 15.0675C7.82365 15.0675 8.01863 15.0225 8.18739 14.9362V21.045C8.18739 21.3 8.25488 21.54 8.37113 21.75H4.31738C4.10738 21.75 3.94238 21.9188 3.94238 22.125C3.94238 22.3313 4.10738 22.5 4.31738 22.5H20.6824C20.8924 22.5 21.0574 22.3313 21.0574 22.125V1.875C21.0574 1.66875 20.8924 1.5 20.6824 1.5Z" fill="#6B7280"/>
</svg>
