<svg width="24" height="24" viewBox="0 0 24 24" fill="none" xmlns="http://www.w3.org/2000/svg">
<g clip-path="url(#clip0_1075_1011)">
<path d="M18.4359 0H5.56401C2.75977 0 0.571922 2.42452 0.86175 5.21095L2.37567 19.7654C2.62603 22.1717 4.65619 24 7.07798 24H11.2968V18.3505C11.2968 17.9625 11.6116 17.6481 12 17.6481C12.3883 17.6481 12.7031 17.9625 12.7031 18.3505V24H16.9219C19.3437 24 21.3739 22.1717 21.6242 19.7654L23.1381 5.21095C23.428 2.42452 21.2401 0 18.4359 0ZM19.9762 7.69613L16.145 12.0956C16.0114 12.2489 15.8179 12.337 15.6145 12.337H8.38542C8.18194 12.337 7.98848 12.249 7.85494 12.0956L4.0237 7.69613C3.7935 7.4318 3.7935 7.03842 4.0237 6.77405C6.14808 4.33458 8.98078 2.99114 12 2.99114C15.0191 2.99114 17.8518 4.33463 19.9762 6.77409C20.2064 7.03842 20.2064 7.4318 19.9762 7.69613Z" fill="#6B7280"/>
<path d="M17.2356 6.14485L16.6255 6.86691C16.4865 7.03355 16.2865 7.11957 16.0851 7.11957C15.9264 7.11957 15.7667 7.06618 15.6352 6.95668C15.337 6.70829 15.2967 6.26537 15.5454 5.96738L16.0195 5.38815C14.9801 4.84726 13.8611 4.51941 12.7032 4.42487V5.28994C12.7032 5.67788 12.3884 5.99237 12.0001 5.99237C11.6118 5.99237 11.297 5.67788 11.297 5.28994V4.42487C10.1391 4.51941 9.02007 4.84726 7.98062 5.3881L8.45476 5.96733C8.70343 6.26532 8.66317 6.70824 8.36495 6.95663C8.23346 7.06608 8.07381 7.11952 7.91504 7.11952C7.71362 7.11952 7.5137 7.03351 7.37462 6.86687L6.76229 6.14649C6.31928 6.47138 5.89632 6.83902 5.49756 7.24801L8.70578 10.9321H10.5782L11.6824 8.54269C11.8075 8.27204 12.1926 8.27204 12.3176 8.54269L13.4219 10.9321H15.2943L18.5025 7.24801C18.1032 6.83837 17.6795 6.47016 17.2356 6.14485Z" fill="#6B7280"/>
</g>
<defs>
<clipPath id="clip0_1075_1011">
<rect width="24" height="24" fill="white"/>
</clipPath>
</defs>
</svg>
