<svg width="34" height="34" viewBox="0 0 34 34" fill="none" xmlns="http://www.w3.org/2000/svg">
<g clip-path="url(#clip0_1075_1022)">
<path d="M6.58785 19.3997C6.40405 19.6065 6.15079 19.7291 5.87457 19.7452C5.85429 19.7464 5.83366 19.747 5.81347 19.747C5.26621 19.747 4.8124 19.3189 4.78039 18.772C4.56086 15.0195 5.05324 12.5495 6.24381 11.4308C6.32518 11.3543 6.40647 11.288 6.48706 11.2286C6.2974 11.1647 6.13508 11.1459 6.02273 11.1434C6.00918 11.1427 5.99581 11.1414 5.98209 11.1414H2.64821C2.63389 11.1414 2.61991 11.1426 2.60584 11.1435C2.36284 11.1494 1.89014 11.2277 1.40622 11.6823C0.293745 12.7277 -0.162219 15.1062 0.0510072 18.7518C0.0724938 19.1188 0.376672 19.4019 0.739528 19.4019C0.753075 19.4019 0.766796 19.4015 0.780516 19.4007C1.16115 19.3784 1.45161 19.0518 1.42943 18.6712C1.25201 15.639 1.59563 14.0226 1.98135 13.2204V16.0757V17.71V26.1666C1.98135 26.756 2.45915 27.2334 3.04817 27.2334C3.63737 27.2334 4.11517 26.756 4.11517 26.1666V18.3769H4.51513V26.1666C4.51513 26.756 4.99293 27.2334 5.58195 27.2334C6.17124 27.2334 6.64903 26.756 6.64903 26.1666V19.3237C6.62979 19.3498 6.6096 19.3752 6.58785 19.3997Z" fill="black"/>
<path d="M4.3151 10.6497C5.38739 10.6497 6.25666 9.7804 6.25666 8.7081C6.25666 7.63581 5.38739 6.76654 4.3151 6.76654C3.2428 6.76654 2.37354 7.63581 2.37354 8.7081C2.37354 9.7804 3.2428 10.6497 4.3151 10.6497Z" fill="black"/>
<path d="M11.6616 19.3997C11.4778 19.6065 11.2245 19.7291 10.9483 19.7452C10.928 19.7464 10.9074 19.747 10.8872 19.747C10.3399 19.747 9.88613 19.3189 9.85412 18.772C9.63459 15.0195 10.127 12.5495 11.3175 11.4308C11.3989 11.3543 11.4802 11.288 11.5608 11.2286C11.3711 11.1647 11.2088 11.1459 11.0965 11.1434C11.0829 11.1427 11.0695 11.1414 11.0558 11.1414H7.72194C7.70762 11.1414 7.69364 11.1426 7.67957 11.1435C7.43658 11.1494 6.96387 11.2277 6.47995 11.6823C5.36748 12.7277 4.91151 15.1062 5.12474 18.7518C5.14622 19.1188 5.4504 19.4019 5.81326 19.4019C5.82681 19.4019 5.84053 19.4015 5.85425 19.4007C6.23488 19.3784 6.52534 19.0518 6.50316 18.6712C6.32574 15.639 6.66936 14.0226 7.05508 13.2204V16.0757V17.71V26.1666C7.05508 26.756 7.53288 27.2334 8.1219 27.2334C8.7111 27.2334 9.1889 26.756 9.1889 26.1666V18.3769H9.58886V26.1666C9.58886 26.756 10.0667 27.2334 10.6557 27.2334C11.245 27.2334 11.7228 26.756 11.7228 26.1666V19.3237C11.7035 19.3498 11.6833 19.3752 11.6616 19.3997Z" fill="#301F0D"/>
<path d="M9.38883 10.6497C10.4611 10.6497 11.3304 9.7804 11.3304 8.7081C11.3304 7.63581 10.4611 6.76654 9.38883 6.76654C8.31653 6.76654 7.44727 7.63581 7.44727 8.7081C7.44727 9.7804 8.31653 10.6497 9.38883 10.6497Z" fill="#301F0D"/>
<path d="M16.7358 19.3997C16.552 19.6065 16.2988 19.7291 16.0226 19.7452C16.0023 19.7464 15.9816 19.747 15.9615 19.747C15.4142 19.747 14.9604 19.3189 14.9284 18.772C14.7088 15.0195 15.2012 12.5495 16.3918 11.4308C16.4732 11.3543 16.5545 11.288 16.635 11.2286C16.4454 11.1647 16.2831 11.1459 16.1707 11.1434C16.1572 11.1427 16.1438 11.1414 16.1301 11.1414H12.7962C12.7819 11.1414 12.7679 11.1426 12.7538 11.1435C12.5108 11.1494 12.0381 11.2277 11.5542 11.6823C10.4416 12.7277 9.98568 15.1061 10.199 18.7518C10.2205 19.1188 10.5247 19.4019 10.8875 19.4019C10.9011 19.4019 10.9148 19.4015 10.9285 19.4007C11.3091 19.3784 11.5996 19.0518 11.5774 18.6712C11.4 15.639 11.7436 14.0226 12.1293 13.2204V16.0757V17.71V26.1666C12.1293 26.756 12.6071 27.2334 13.1962 27.2334C13.7854 27.2334 14.2632 26.756 14.2632 26.1666V18.3769H14.6631V26.1666C14.6631 26.756 15.1409 27.2334 15.7299 27.2334C16.3192 27.2334 16.797 26.756 16.797 26.1666V19.3237C16.7778 19.3498 16.7576 19.3752 16.7358 19.3997Z" fill="#82582E"/>
<path d="M14.463 10.6497C15.5353 10.6497 16.4046 9.7804 16.4046 8.7081C16.4046 7.63581 15.5353 6.76654 14.463 6.76654C13.3908 6.76654 12.5215 7.63581 12.5215 8.7081C12.5215 9.7804 13.3908 10.6497 14.463 10.6497Z" fill="#82582E"/>
<path d="M21.8096 19.3997C21.6258 19.6065 21.3725 19.7291 21.0963 19.7452C21.076 19.7464 21.0554 19.747 21.0352 19.747C20.4879 19.747 20.0341 19.3189 20.0021 18.772C19.7826 15.0195 20.275 12.5495 21.4655 11.4308C21.5469 11.3543 21.6282 11.288 21.7088 11.2286C21.5191 11.1647 21.3568 11.1459 21.2444 11.1434C21.2309 11.1427 21.2175 11.1414 21.2038 11.1414H17.8699C17.8556 11.1414 17.8416 11.1426 17.8276 11.1435C17.5846 11.1494 17.1119 11.2277 16.6279 11.6823C15.5154 12.7277 15.0594 15.1061 15.2727 18.7518C15.2942 19.1188 15.5984 19.4019 15.9612 19.4019C15.9748 19.4019 15.9885 19.4015 16.0022 19.4007C16.3829 19.3784 16.6733 19.0518 16.6511 18.6712C16.4737 15.639 16.8173 14.0226 17.2031 13.2204V16.0757V17.71V26.1666C17.2031 26.756 17.6809 27.2334 18.2699 27.2334C18.8591 27.2334 19.3369 26.756 19.3369 26.1666V18.3769H19.7368V26.1666C19.7368 26.756 20.2146 27.2334 20.8037 27.2334C21.393 27.2334 21.8707 26.756 21.8707 26.1666V19.3237C21.8515 19.3498 21.8313 19.3752 21.8096 19.3997Z" fill="#C59A6D"/>
<path d="M19.5368 10.6497C20.6091 10.6497 21.4783 9.7804 21.4783 8.7081C21.4783 7.63581 20.6091 6.76654 19.5368 6.76654C18.4645 6.76654 17.5952 7.63581 17.5952 8.7081C17.5952 9.7804 18.4645 10.6497 19.5368 10.6497Z" fill="#C59A6D"/>
<path d="M26.8838 19.3997C26.7 19.6065 26.4467 19.7291 26.1705 19.7452C26.1502 19.7464 26.1296 19.747 26.1094 19.747C25.5621 19.747 25.1083 19.3189 25.0763 18.772C24.8568 15.0195 25.3492 12.5495 26.5397 11.4308C26.6211 11.3543 26.7024 11.288 26.783 11.2286C26.5933 11.1647 26.431 11.1459 26.3187 11.1434C26.3051 11.1427 26.2917 11.1414 26.278 11.1414H22.9441C22.9298 11.1414 22.9158 11.1426 22.9018 11.1435C22.6588 11.1494 22.1861 11.2277 21.7021 11.6823C20.5896 12.7277 20.1336 15.1061 20.3469 18.7518C20.3684 19.1188 20.6726 19.4019 21.0355 19.4019C21.049 19.4019 21.0627 19.4015 21.0764 19.4007C21.4571 19.3784 21.7475 19.0518 21.7254 18.6712C21.5479 15.639 21.8916 14.0226 22.2773 13.2204V16.0757V17.71V26.1666C22.2773 26.756 22.7551 27.2334 23.3441 27.2334C23.9333 27.2334 24.4111 26.756 24.4111 26.1666V18.3769H24.8111V26.1666C24.8111 26.756 25.2889 27.2334 25.8779 27.2334C26.4672 27.2334 26.945 26.756 26.945 26.1666V19.3237C26.9257 19.3498 26.9055 19.3752 26.8838 19.3997Z" fill="#DEBD9A"/>
<path d="M24.611 10.6497C25.6833 10.6497 26.5526 9.7804 26.5526 8.7081C26.5526 7.63581 25.6833 6.76654 24.611 6.76654C23.5387 6.76654 22.6694 7.63581 22.6694 8.7081C22.6694 9.7804 23.5387 10.6497 24.611 10.6497Z" fill="#DEBD9A"/>
<path d="M32.5937 11.6824C32.1086 11.2268 31.6349 11.149 31.3924 11.1434C31.3788 11.1427 31.3655 11.1414 31.3517 11.1414H28.0179C28.0035 11.1414 27.9896 11.1426 27.9755 11.1435C27.7325 11.1494 27.2598 11.2277 26.7759 11.6823C25.6633 12.7277 25.2074 15.1061 25.4207 18.7518C25.4422 19.1188 25.7463 19.4019 26.1092 19.4019C26.1227 19.4019 26.1365 19.4015 26.1502 19.4007C26.5308 19.3784 26.8213 19.0518 26.7991 18.6712C26.6217 15.639 26.9653 14.0226 27.351 13.2204V16.0757V17.71V26.1666C27.351 26.756 27.8288 27.2334 28.4178 27.2334C29.007 27.2334 29.4848 26.756 29.4848 26.1666V18.3769H29.8848V26.1666C29.8848 26.756 30.3626 27.2334 30.9516 27.2334C31.5409 27.2334 32.0187 26.756 32.0187 26.1666V17.71V16.0757V13.2205C32.4044 14.0227 32.748 15.639 32.5706 18.6712C32.5484 19.0519 32.8388 19.3785 33.2195 19.4008C33.2333 19.4015 33.2468 19.402 33.2605 19.402C33.6233 19.402 33.9275 19.1188 33.949 18.7519C34.1622 15.1063 33.7062 12.7277 32.5937 11.6824Z" fill="#ECDAC4"/>
<path d="M29.6847 10.6497C30.757 10.6497 31.6263 9.7804 31.6263 8.7081C31.6263 7.63581 30.757 6.76654 29.6847 6.76654C28.6124 6.76654 27.7432 7.63581 27.7432 8.7081C27.7432 9.7804 28.6124 10.6497 29.6847 10.6497Z" fill="#ECDAC4"/>
</g>
<defs>
<clipPath id="clip0_1075_1022">
<rect width="34" height="34" fill="white"/>
</clipPath>
</defs>
</svg>
