<svg width="50" height="50" viewBox="0 0 50 50" fill="none" xmlns="http://www.w3.org/2000/svg">
<g clip-path="url(#clip0_1073_631)">
<path d="M49.9995 23.4375C49.9995 34.6582 38.8081 43.75 24.9995 43.75C21.3764 43.75 17.9389 43.125 14.8335 42.002C13.6714 42.8516 11.7768 44.0137 9.53073 44.9902C7.18698 46.0059 4.36471 46.875 1.56198 46.875C0.927213 46.875 0.360806 46.4941 0.116666 45.9082C-0.127475 45.3223 0.00924364 44.6582 0.448697 44.209L0.477994 44.1797C0.507291 44.1504 0.546353 44.1113 0.604947 44.043C0.712369 43.9258 0.878384 43.7402 1.08346 43.4863C1.48385 42.998 2.02096 42.2754 2.56784 41.377C3.5444 39.7559 4.47213 37.627 4.65768 35.2344C1.72799 31.9141 -0.000521963 27.8418 -0.000521963 23.4375C-0.000521963 12.2168 11.1909 3.125 24.9995 3.125C38.8081 3.125 49.9995 12.2168 49.9995 23.4375Z" fill="#FFFC00"/>
</g>
<defs>
<clipPath id="clip0_1073_631">
<path d="M0 0H50V50H0V0Z" fill="white"/>
</clipPath>
</defs>
</svg>
