<svg width="12" height="16" viewBox="0 0 12 16" fill="none" xmlns="http://www.w3.org/2000/svg">
<path fill-rule="evenodd" clip-rule="evenodd" d="M6 0.833344C3.518 0.833344 1.5 2.86934 1.5 5.38068C1.5 6.23134 1.87467 7.28668 2.42 8.33934C3.62067 10.6573 5.62067 12.992 5.62067 12.992C5.71533 13.1027 5.854 13.1667 6 13.1667C6.146 13.1667 6.28467 13.1027 6.37933 12.992C6.37933 12.992 8.37933 10.6573 9.58 8.33934C10.1253 7.28668 10.5 6.23134 10.5 5.38068C10.5 2.86934 8.482 0.833344 6 0.833344ZM6 3.50001C4.988 3.50001 4.16667 4.32134 4.16667 5.33334C4.16667 6.34534 4.988 7.16668 6 7.16668C7.012 7.16668 7.83333 6.34534 7.83333 5.33334C7.83333 4.32134 7.012 3.50001 6 3.50001Z" fill="#6B7280"/>
<path fill-rule="evenodd" clip-rule="evenodd" d="M9.18917 11.5847C9.73117 11.7474 10.1778 11.9487 10.4865 12.1847C10.6865 12.3367 10.8332 12.4854 10.8332 12.6667C10.8332 12.7734 10.7725 12.87 10.6872 12.9667C10.5458 13.126 10.3358 13.2694 10.0758 13.4027C9.15717 13.8727 7.67184 14.1667 5.99984 14.1667C4.32784 14.1667 2.8425 13.8727 1.92384 13.4027C1.66384 13.2694 1.45384 13.126 1.3125 12.9667C1.22717 12.87 1.1665 12.7734 1.1665 12.6667C1.1665 12.4854 1.31317 12.3367 1.51317 12.1847C1.82184 11.9487 2.2685 11.7474 2.8105 11.5847C3.0745 11.5054 3.2245 11.226 3.14517 10.962C3.06584 10.6974 2.7865 10.5474 2.5225 10.6267C1.69717 10.8754 1.05584 11.216 0.670504 11.5927C0.331837 11.9227 0.166504 12.292 0.166504 12.6667C0.166504 13.1347 0.431171 13.6014 0.969171 13.9907C1.91317 14.6734 3.80917 15.1667 5.99984 15.1667C8.1905 15.1667 10.0865 14.6734 11.0305 13.9907C11.5685 13.6014 11.8332 13.1347 11.8332 12.6667C11.8332 12.292 11.6678 11.9227 11.3292 11.5927C10.9438 11.216 10.3025 10.8754 9.47717 10.6267C9.21317 10.5474 8.93384 10.6974 8.8545 10.962C8.77517 11.226 8.92517 11.5054 9.18917 11.5847Z" fill="#6B7280"/>
</svg>
